<?xml version="1.0" encoding="utf-8"?>
<!-- Generator: Adobe Illustrator 23.1.0, SVG Export Plug-In . SVG Version: 6.00 Build 0)  -->
<svg version="1.1" id="Layer_1" xmlns="http://www.w3.org/2000/svg" xmlns:xlink="http://www.w3.org/1999/xlink" x="0px" y="0px"
	 viewBox="0 0 278.8 250.9" style="enable-background:new 0 0 278.8 250.9;" xml:space="preserve">
<style type="text/css">
	.st0{fill:none;}
</style>
<path class="st0" d="M101.2,92.1c0,0.1,0.1,0.1,0.1,0.2C101.3,92.2,101.3,92.1,101.2,92.1C101.2,92.1,101.2,92.1,101.2,92.1z"/>
<path class="st0" d="M188.9,170.9c0-0.3-0.1-0.6-0.4-0.8c-0.3,0-0.6-0.1-0.9-0.1c0.3,0,0.6,0.1,0.9,0.1
	C188.8,170.3,188.9,170.6,188.9,170.9z"/>
<path d="M156.3,194.3c-1-0.9-2.4-1.4-3.7-1.7c-0.9-0.2-1.8-0.3-2.6-0.6c-0.3-0.2-0.8-0.3-0.9-0.6c-0.3-0.4-0.5-1-0.5-1.5
	c0-0.5,0.4-0.8,0.7-1.2c0.5-0.6,1.2-0.6,1.8-0.7c0.5-0.1,1,0,1.5,0.1c0.6,0.1,1.2,0.3,1.6,0.7c0.6,0.5,0.6,1.2,0.7,1.9
	c0,0.2,0,0.4,0.1,0.5c0.4,0.6,1.4,0.7,1.9,0.3c0.5-0.4,0.5-0.9,0.4-1.5c-0.1-0.5-0.3-1.1-0.5-1.6c-0.6-1.4-1.7-2.2-3.1-2.6
	c-0.9-0.3-1.9-0.3-2.9-0.2c-1.8,0.1-3.1,0.9-4.1,2.3c-0.1,0.1-0.2,0.2-0.4,0.3c-0.6-0.9-1.1-1.7-1.6-2.6c-0.2-0.3-0.4-0.6-0.4-0.9
	c-0.1-0.8-0.6-1.4-0.8-2.1c-0.1-0.6-0.5-1.2-0.5-1.8c0-0.6-0.2-1-0.3-1.5c-0.1-0.4-0.1-0.7-0.2-1.1c-0.2-1.1-0.4-2.3-0.8-3.4
	c-0.5-1.4-1.1-2.8-1.7-4.2c-0.1-0.2-0.3-0.4-0.4-0.6c-0.1-0.2-0.3-0.4-0.4-0.6c0,0,0,0,0-0.1c-0.3-0.5-0.5-1-0.8-1.5
	c-0.3-0.5-0.8-0.9-1.2-1.3c-0.5-0.7-1.3-1.1-1.6-2c0-0.1-0.2-0.2-0.3-0.2c-0.1-0.1-0.3-0.1-0.4-0.2c-0.4-0.5-0.9-0.8-1.5-0.8
	c-0.2,0-0.3-0.1-0.6-0.2c0.3-0.2,0.4-0.3,0.6-0.5c0.1-0.1,0.2-0.1,0.2-0.2c0.2-0.5,0.4-0.9,0.9-1.1c0.2-0.1,0.5-0.2,0.4-0.6
	c-0.1-0.4-0.1-0.7,0-1.1c0.1-0.2,0-0.4,0-0.6c0-0.7-0.2-1.3,0.3-1.9c0.1-0.1,0-0.3,0-0.5c0-0.5-0.2-0.9,0-1.4c0-0.1,0.1-0.4,0-0.5
	c-0.1-0.3-0.1-0.5,0-0.7c0.1-0.7,0.2-1.5,0.1-2.2c-0.1-0.6-0.1-1.1-0.2-1.6c0-0.6-0.2-1.1,0.2-1.6c0,0,0,0,0-0.1
	c-0.1-0.7,0-1.5,0-2.2c0-0.1,0-0.2-0.1-0.3c-0.4-0.6-0.4-1.3-0.6-1.9c-0.1-0.3-0.2-0.7,0-1c0.1-0.1,0.1-0.3,0-0.4
	c-0.2-0.6-0.1-1.3-0.5-1.8c-0.1-0.1-0.1-0.2-0.1-0.4c-0.1-0.3-0.1-0.7-0.2-1c-0.1-0.5-0.4-1.1-0.4-1.6c0.1-0.7,0.1-1.4-0.1-2.2
	c0-0.2,0-0.4,0-0.5c0.1-0.3,0-0.5-0.1-0.7c-0.2-0.4-0.5-0.8-0.5-1.2c0-0.8-0.3-1.5-0.2-2.3c0-0.2-0.1-0.4-0.2-0.6
	c-0.3-0.5-0.5-1-0.3-1.6c0-0.1,0-0.1,0-0.2c-0.1-0.9-0.6-1.6-0.6-2.5c0-0.1-0.1-0.2-0.2-0.3c-0.2-0.4-0.6-0.8-0.2-1.3
	c0,0,0-0.1,0-0.2c-0.5-1-0.2-2.2-0.9-3.2c-0.3-0.3-0.3-0.9-0.5-1.3c-0.3-0.6-0.5-1.2-0.6-1.8c0-0.2-0.1-0.4-0.2-0.5
	c-0.5-0.7-0.9-1.3-1.5-1.9c-0.3-0.4-0.7-0.7-1.1-1.1c-0.5-0.6-1.1-0.9-1.9-0.9c-0.7,0.1-1.3,0.5-1.9,0.8c0,0-0.1,0.1-0.1,0.1
	c0,0.3-0.2,0.5-0.5,0.5c-0.3,0-0.3,0.4-0.6,0.4c-0.5,0-0.9,0.3-1,0.9c0,0.2-0.1,0.5-0.1,0.7c-0.1,0.4-0.3,0.7-0.5,1.2
	c0,0.1,0.2,0.3,0.2,0.5c0,0.7-0.1,1.4,0.3,2c0,0.1,0,0.1,0,0.2c0,0.7,0.3,1.2,0.7,1.8c0.3,0.4,0.4,0.8,0.1,1.2
	c0.1,0.2,0.3,0.4,0.3,0.4c-0.3,0.4,0.1,0.7,0.1,1c0.2,0,0.3,0,0.5,0c-0.3,0.6,0.2,0.9,0.5,1.3c0.1,0.2,0.2,0.3,0.2,0.5
	c0,0.3,0,0.7,0.1,1.1c0.3,0.8,0.7,1.5,0.8,2.4c0.2,0.8,0.6,1.5,1,2.2c0.3,0.6,0.9,1.1,0.8,1.9c0.4,0.4,0.3,0.9,0,1.3
	c0,0,0,0.1,0,0.1c0.2,0.6,0.3,1.3,0.6,1.9c0.1,0.2,0.1,0.3,0.2,0.5c0.1,0.4-0.2,0.9,0,1.3c0.2,0.6,0.6,1.2,0.3,1.9
	c0,0.1,0,0.2,0.1,0.2c0.3,0.3-0.1,0.8,0.3,1c-0.3,0.6,0.1,0.9,0.4,1.3c0.2,0.2,0.3,0.5,0.1,0.8c-0.1,0.1-0.1,0.4-0.1,0.6
	c0,0.2,0,0.4,0,0.6c-0.2,0.6-0.2,1.2,0,1.8c0.2,0.5,0.1,1.3,0.9,1.6c-0.7,0.4-0.4,0.9-0.3,1.2c-0.1,0.3-0.4,0.6-0.3,0.7
	c0.4,0.6-0.1,1.3,0.4,1.8c0.1,0.1-0.1,0.3-0.1,0.4c0,0.2,0,0.4,0,0.6c-0.2,0-0.3,0.2-0.2,0.5c0.2,0.4-0.1,0.7-0.3,0.9
	c-0.3,0.2-0.8,0.4-1,0.3c-0.5-0.3-1-0.2-1.3,0.1c-1-0.2-1.8-0.3-2.7-0.4c-0.2,0-0.3,0-0.5,0c-0.8-0.2-1.4-0.7-2-1.2
	c-0.2-0.2-0.3-0.4-0.4-0.5c-0.6-0.4-1.1-0.8-1.5-1.4c-0.1-0.2-0.3-0.3-0.4-0.5c-0.4-0.4-0.7-0.8-1.1-1.2c-0.5-0.5-1-1-1.5-1.5
	c-0.1-0.1-0.2-0.2-0.3-0.3c-0.3-0.3-0.5-0.7-0.8-1c-0.2-0.2-0.4-0.4-0.4-0.7c-0.3-1-0.6-2.1-1.3-3c-0.4-0.6-0.3-1.1-0.2-1.7
	c-0.4-0.5-0.8-0.9-1.3-1.4c-0.1-0.1-0.1-0.2-0.1-0.3c0-0.1-0.1-0.2-0.1-0.3c-0.1-0.1-0.2-0.3-0.2-0.4c0-0.3-0.1-0.5-0.2-0.7
	c-0.4-0.6-0.7-1.3-1-2c0-0.1-0.1-0.1,0-0.2c0.1-0.8-0.5-1.4-0.4-2.2c0,0,0-0.1-0.1-0.1c-0.4-0.2-0.3-0.6-0.3-0.9
	c-0.1-0.3,0-0.7-0.2-0.8c-0.5-0.3-0.6-0.9-0.8-1.3c-0.3-0.7-0.8-1.4-0.3-2.1c-0.3-0.7-0.5-1.4-0.8-2c0-0.1,0-0.1,0-0.2
	c0.1-0.9-0.4-1.6-0.7-2.4c0.1,0,0.2-0.1,0.3-0.2c-0.1-0.4-0.1-0.8-0.2-1.1c-0.2-0.3-0.3-0.6-0.2-1c0-0.1,0-0.2,0-0.3
	c-0.2-0.5-0.1-1,0-1.6c0-0.1,0-0.2,0-0.3c-0.3-0.7-0.8-1.3-0.8-2c0-0.5-0.3-1,0.1-1.5c-0.3-0.6-0.6-1.2-0.4-1.9c0-0.2,0.2-0.4,0-0.6
	c0,0,0.3-0.4,0-0.6c0,0,0-0.2,0-0.3c0.1-0.3,0.3-0.7,0.2-1c-0.1-0.4,0-0.8,0.3-1.1c-0.3-0.3-0.5-0.6-0.2-1c-0.1-0.2-0.3-0.3-0.4-0.5
	c-0.2-0.3-0.2-0.6,0-0.8c0.3-0.3,0.3-0.7,0.1-1c0-0.1-0.1-0.2-0.1-0.2c0.3-0.4,0.2-0.9,0.2-1.3c0.1-0.5,0.1-1-0.1-1.4
	c0.1-0.3,0.3-0.5,0.2-0.7c-0.2-0.6-0.2-1.2-0.1-1.8c0.3-0.2,0.5-0.3,0.5-0.5s0-0.5-0.2-0.9c0-0.1,0.1-0.1,0.1-0.2
	c0.2-0.2,0.3-0.3,0.4-0.5c0.1-0.4,0.5-0.8,0.2-1.2c0-0.1,0-0.2,0.1-0.3c0.5-0.6,1.2-0.8,2-1.1c0.1,0,0.2,0,0.3,0.1
	c0.7,0.2,1.3,0.4,2,0.6c0.4-0.4,0.4-0.5-0.1-0.9c-0.3-0.2-0.6-0.5-1-0.8c0.4-0.2,0.8-0.3,1.1-0.5c0.5-0.3,1.1,0,1.6-0.1
	c0.3,0,0.6-0.1,0.9,0c0.6,0.2,1,0.6,1.4,1.1c0.1,0.2,0.2,0.4,0.4,0.5c0.7,0.6,1,1.4,1,2.3c0,0.3-0.1,0.6,0,0.8
	c0.3,0.5,0.2,1,0.4,1.5c0.1,0.3,0.3,0.7,0.3,0.9c-0.1,0.3,0,0.7,0.1,0.8c0.3,0.4,0.2,0.7,0.2,1.1c0,0.3,0.1,0.6,0.1,0.9
	c0,0.1,0.2,0.3,0.3,0.4c-0.1,0.4,0,0.7,0.4,1c0.5,0.5,1,1,1.6,1.4c0.4,0.3,0.7,0.6,1.3,0.5c0.3-0.1,0.6,0.1,0.9,0
	c0.5-0.1,0.9-0.2,1.4-0.3c0,0,0,0,0.1,0c0.4-0.5,0.9-0.7,1.6-0.5c0-0.5,0.4-0.6,0.7-0.9c0.4-0.5,0.9-0.9,1.3-1.4
	c-0.1-0.3-0.2-0.6-0.3-0.9c0.6-0.4,0.5-1,0.4-1.6c-0.1-0.6-0.4-1.3-0.8-1.8c-0.2-0.3-0.3-0.6-0.4-0.9c-0.2-0.5-0.3-1.1-0.4-1.7
	c-0.1-0.3-0.2-0.7-0.3-1.1c-0.1-0.1-0.4-0.2-0.4-0.3c0-0.7-0.5-1.1-0.7-1.6c-0.6-1.4-1.4-2.7-2.4-3.8c-0.4-0.4-0.8-0.9-1.1-1.3
	c-0.3-0.3-0.7-0.6-0.9-0.9c-0.4-0.6-1.2-0.8-1.6-1.4c0-0.1-0.1-0.1-0.2-0.1c-0.3-0.2-0.6-0.3-0.9-0.5c-0.1-0.1-0.2-0.2-0.4-0.3
	c-1.1-0.3-2.2-0.9-3.2-1.6c-0.5-0.3-1-0.4-1.5-0.2c-0.1,0-0.2,0.1-0.2,0c-0.3-0.3-0.6-0.1-0.8,0.1c-0.3,0.2-0.5,0.2-0.8,0.1
	c-0.1-0.1-0.2-0.1-0.5-0.2c-0.1,0.2-0.3,0.4-0.4,0.5c-0.2-0.1-0.3-0.2-0.5-0.3c-0.1,0.2-0.2,0.4-0.3,0.6c-0.1-0.2-0.2-0.4-0.3-0.6
	c-0.4,0.3-0.8,0.5-1,0.8c-0.3,0.5-0.6,0.6-1.1,0.7c-0.4,0.1-0.8,0.2-1,0.7c-0.2,0.4-0.6,0.7-1,1.1c-0.1,0.2-0.2,0.6-0.3,0.9
	c-0.3,0-0.4-0.1-0.6,0.1c-0.1,0.1-0.3,0.3-0.6,0.5c0,0.1,0.1,0.1,0.1,0.2s0,0.1,0.1,0.1c-0.4,0.2-0.7,0.3-1,0.5c0.4,0.8,0,1.7-0.8,2
	c-0.3,0.1-0.6,0.4-1,0.6c0.2,0.2,0.4,0.3,0.5,0.4c-0.3,0.4-0.6,0.8-1,1.2c0.1,0.2,0.2,0.3,0.3,0.5c-0.6,0.9-0.9,1.9-0.9,2.9
	c0,0.7-0.1,1.3-0.1,2c0.2,0,0.4,0.1,0.6,0.1c-0.2,0.2-0.3,0.4-0.4,0.6c0,0.2,0.1,0.4,0.1,0.6c-0.2-0.1-0.4-0.2-0.5-0.3
	c-0.1,0.2-0.2,0.4-0.1,0.5c0.3,0.5,0.1,0.9-0.3,1.2c0.2,0.1,0.3,0.1,0.5,0.2c-0.2,0.2-0.4,0.3-0.6,0.4c0,1.3,0.5,2.4,0.9,3.6
	c-0.3-0.1-0.5-0.1-0.8-0.2c0.1,0.4,0.2,0.8,0.3,1c-0.1,0.2-0.3,0.4-0.3,0.4c0.4,0.6,0.2,1.2,0.2,1.8c0,0.2,0.1,0.5,0.1,0.7
	c0,0.1,0,0.2-0.1,0.2c-0.5,0.3-0.1,0.7-0.1,1c0,0.5,0.4,1,0.1,1.5c0,0,0,0.1,0,0.2c0,0.2,0.1,0.4,0.1,0.7c0.1,0.7,0.1,1.4,0.2,2.1
	c0,0.5,0.4,0.9,0.2,1.4c-0.3,0.6-0.1,1.3,0,1.9c0.1,0.5,0.2,1,0.4,1.4c0.3,0.5,0.2,1,0.1,1.5c-0.8-0.4-1.6-0.7-2.1-1.2
	c-0.5-0.4-1.1-0.5-1.6-0.9c-0.6-0.4-1.3-0.6-1.9-0.9c-1.1-0.5-2.2-1.1-3.3-1.6c-0.4-0.2-0.7-0.3-1.1-0.4c-0.3-0.1-0.7-0.4-1-0.4
	c-1-0.2-2-0.5-2.9-1c-0.2-0.1-0.4-0.2-0.6-0.2c-0.7-0.1-1.3-0.1-1.9-0.5c-0.1-0.1-0.3-0.1-0.4-0.1c-0.7,0.1-1.3-0.2-1.9-0.3
	c-0.2,0-0.4-0.2-0.6-0.2c-0.7-0.2-1.5-0.4-2.2-0.7c0.5-1.1,0.8-2.2,0.9-3.3c0.1-1.1,0-2.2-0.1-3.3c0-0.3-0.1-0.6-0.1-0.9
	c0-0.8,0-1.5-0.1-2.3c0-1-0.1-2-0.1-3.1c0-1-0.2-1.3-1.3-1.4c-0.9,0-1.2,0.2-1.3,1c0,0.2,0,0.4,0,0.6c0.1,0.5,0.2,1.1,0.1,1.6
	c-0.1,0.4,0,0.8,0,1.3c0,0.5,0,0.9,0,1.4c0,1,0.1,1.9,0.1,2.9c0,0.5,0,1.1,0,1.6c0.1,0.5,0.1,1.1,0,1.6c-0.1,0.4-0.3,0.8-0.5,1.3
	c-0.2-0.1-0.4-0.2-0.6-0.3c-0.6-0.1-1.1-0.4-1.6-0.8c-0.3-0.3-0.8-0.5-1.2-0.7c-0.7-0.2-1.2,0-1.6,0.6c-0.1,0.2-0.2,0.3-0.2,0.5
	c-0.1,0-0.1,0-0.2,0c-0.1-0.8-0.3-1.6-0.3-2.5c-0.1-0.6,0-1.2,0-1.8c-0.1-1.5-0.2-3.1-0.2-4.6c0-0.6,0-1.3,0-1.9
	c0-0.3,0-0.6-0.1-0.9c-0.1-0.5-0.6-0.5-1-0.5c-1-0.2-1.6,0.5-1.4,1.5c0,0.1,0.1,0.2,0.1,0.3c0,1.3,0,2.7,0.1,4
	c0,0.8,0.1,1.6,0.1,2.3c0,1.2,0.1,2.4,0.2,3.5c0.1,1.5,0.9,2.7,2,3.6c1.1,0.9,2.5,1.1,3.9,1c0.5,0,1.1-0.2,1.5,0
	c0.4,0.2,0.9,0.3,1.3,0.5c0.6,0.2,1.3,0.4,1.9,0.6c0.4,0.1,0.7,0.2,1.1,0.3c1.1,0.3,2.2,0.6,3.3,0.8c0.9,0.2,1.7,0.4,2.6,0.7
	c0.2,0.1,0.4,0.2,0.6,0.2c0.6,0.3,1.2,0.7,1.9,0.8c0.6,0.1,1.2,0.3,1.7,0.6c0.7,0.4,1.5,0.6,2,1.2c0.2,0.3,0.6,0.5,0.9,0.7
	c0.7,0.3,1.3,0.9,1.9,1.4c0.2,0.1,0.2,0.4,0.3,0.6c0.3,0.5,0.2,1.2,0.9,1.3c0,0.4,0,0.6,0.1,0.9c0.1,0.4,0.1,0.8-0.4,1.1
	c-0.3,0.2-0.5,0.4-0.5,0.9c0.1,0.4-0.2,0.8-0.5,1c-0.3,0.2-0.5,0.4-0.5,0.8c0,0.1-0.1,0.2-0.2,0.3c-0.5,0.5-1,1-1.5,1.4
	c-0.3,0.3-0.6,0.5-0.8,0.8c-0.7,0.8-1.5,1.6-2.4,2.2c-0.2,0.1-0.4,0.2-0.6,0.4c-0.3,0.3-0.5,0.5-0.9,0.5c-0.2,0-0.5,0.2-0.7,0.4
	c-0.6,0.7-1.5,0.9-2.3,1c-0.5,0.1-1.1-0.1-1.6,0.3c0,0-0.1,0-0.2,0c-0.3,0-0.6,0-0.9,0c-0.3,0-0.6,0.1-1,0.1
	c-0.8-0.1-1.5-0.2-2.3-0.2c0-1.4,0-2.8,0-4.2c0-1.7,0.1-3.4,0.1-5.1c0-1.4,0-2.8,0-4.2c0-0.5-0.4-1-0.8-1.1c-0.3,0-0.6-0.1-0.8,0
	c-0.3,0.1-0.6,0.2-0.7,0.4c-0.1,0.2-0.1,0.5-0.1,0.8c0,0.7,0.1,1.3,0.1,2c0,1-0.1,2.1-0.1,3.1c0,1.5,0.1,3.1,0.1,4.6
	c0,0.5-0.1,1-0.1,1.5c-0.4-0.1-0.5-0.3-0.5-0.7c-0.1-0.5-0.3-1-0.4-1.4c-0.3-0.9-0.6-1.9-0.9-2.8c-0.1-0.5-0.2-1-0.4-1.4
	c-0.6-1.7-1.1-3.5-1.7-5.2c-0.2-0.7-0.6-0.8-1.3-0.8c-0.5,0-1,0-1.5,0c-0.4,0-0.8,0-1.2,0.1c-0.2,0.1-0.4,0.3-0.5,0.5
	c-0.1,0.3-0.1,0.6-0.1,0.9c0,0.5,0,0.9,0,1.4c0,1,0,1.9,0,2.9c0,1.2,0,2.4,0,3.6c0,0.4-0.1,0.8-0.1,1.2c0,0.6,0.1,1.2,0.1,1.8
	c0,0.6-0.1,1.1,0,1.7c0,0.6,0.1,1.2,0.1,1.8c0.4,0.1,0.7,0.2,1,0.2c0.9,0.1,1.3-0.4,1.2-1.2c0-0.4,0-0.9,0-1.3
	c0-0.9,0.1-1.8,0.1-2.7c0-1.2-0.1-2.4-0.1-3.6c0-0.5,0.1-0.9,0.1-1.4c0-0.5-0.1-1.1-0.1-1.6c0-0.3,0.1-0.6,0.1-0.9
	c0.1,0,0.1,0,0.2,0c0.7,1.9,1.2,3.9,1.9,5.9c0.7,2,1.2,4,1.7,6c-0.3,0.1-0.5,0.3-0.8,0.3c-1.3,0.2-2.5,0.6-3.6,1.1
	c-0.2,0.1-0.5,0.1-0.7,0.1c-0.3-0.1-0.5,0-0.7,0.2c-0.2,0.1-0.3,0.2-0.5,0.3c-0.4,0.2-0.9,0.3-1.3,0.5c-1.4,0.6-2.8,1.2-4.1,1.8
	c-0.3,0.1-0.6,0.3-0.9,0.5c-0.4,0.2-0.8,0.3-1.2,0.5c-0.3,0.1-0.6,0.2-0.9,0.4c-0.5,0.5-1.3,0.6-1.8,1.3c-0.1,0.1-0.3,0.1-0.4,0.2
	c-0.2,0.1-0.5,0.3-0.6,0.5c-0.2,0.5-0.6,0.8-1,1.1c-0.3,0.2-0.5,0.4-0.5,0.8c0,0.4-0.1,0.8-0.2,1.2c-0.5,1.2-0.2,2.2,0.3,3.3
	c0.2,0.4,0.5,0.8,0.9,1.1c1,0.9,2.1,1.8,3.2,2.5c0.2,0.1,0.4,0.3,0.7,0.5c0.6,0.4,1.1,1,1.9,0.6c0.3,0.7,0.8,0.9,1.4,0.9
	c1,0.1,1.8,0.5,2.7,0.7c0.8,0.2,1.5,0.5,2.3,0.5c0.8,0,1.5,0.2,2.3,0.2c0.8,0,1.5,0,2.3-0.1c0.5-0.1,1.1-0.2,1.6-0.3
	c0.8,1.3,1.9,1.9,3.3,2.1c1.8,0.3,3.6,0,5.1-1.2c0.5-0.4,0.9-0.9,1.2-1.5c0.3-0.6,0.5-1.4,0.7-2.1c0.1-0.4,0.3-0.5,0.7-0.5
	c0.2,0,0.5,0.1,0.7,0.1c1-0.1,1.8,0.4,2.5,0.9c0.7,0.4,1.4,0.9,2,1.4c0.4,0.3,0.6,0.6,1,0.8c1.3,0.7,2.1,2,3.3,2.8
	c0.6,0.4,1,1,1.5,1.6c-0.1,0-0.2,0.1-0.3,0.1c-0.2,0-0.4-0.1-0.7-0.1c-0.6,0-1.1,0-1.7,0c-1,0-1.9,0-2.9,0c-0.9,0-1.8,0-2.7,0
	c-0.4,0-0.7,0.2-0.8,0.5c-0.4,1.2-0.1,1.8,1.1,1.8c0.1,0,0.2,0,0.3,0c0.6,0,1.2,0.1,1.8,0.2c0.3,0,0.5,0.1,0.5,0.5
	c0,0.6,0,1.3,0,1.9c0,0.7-0.1,1.4-0.1,2c0,0.8,0,1.6,0,2.4c0,0.9,0,1.8,0,2.7c0,0.6-0.1,1.1-0.1,1.7c-0.6,0.1-1,0.1-1.5,0.1
	c-0.5,0-0.9,0-1.4,0c-0.7,0-1,0.3-1.1,1c-0.1,0.8,0.3,1.2,1,1.2c0.4,0,0.7,0,1.1,0c0.5,0,1,0.1,1.4,0.1c0.8,0,1.5-0.1,2.3-0.1
	c1.1,0,2.3,0.1,3.4,0.1c0.7,0,1-0.3,1.1-1.2c0.1-0.5-0.2-1-0.8-1.2c-0.4-0.1-0.8,0-1.3,0c-0.6,0-1.1,0-1.7,0
	c-0.2-0.7-0.2-1.4-0.2-2.1c0-0.5,0.1-1,0.1-1.6c0-0.7,0-1.4,0-2.2c0-0.6,0.1-1.3,0.1-1.9c0-1,0-1.9,0-2.9c0-0.6,0.1-0.6,0.6-0.7
	c0.5,0,1,0,1.5,0c0.6,0,1.2,0.1,1.7-0.3c0.1-0.4,0.2-0.7,0.4-1.1c0.2,0.1,0.3,0.2,0.4,0.3c0.4,0.4,0.7,0.8,1,1.1
	c0.6,0.6,1.2,1.2,1.8,1.8c0.4,0.3,0.5,0.9,1,1c0.1,0,0.1,0.2,0.1,0.2c0.1,0.3,0.3,0.5,0.6,0.7c0.3,0.2,0.5,0.4,0.7,0.7
	c0.3,0.5,0.5,1,0.8,1.5c0.2,0.4,0.4,0.7,0.1,1.1c-0.1,0.1,0,0.4,0,0.5c0,0.7,0,1.3,0,2c0,0,0,0.1-0.1,0.1c-0.1,0.3-0.2,0.5-0.3,0.8
	c-0.2,0.5-0.3,1.1-0.6,1.6c-0.4,0.8-1,1.5-1.2,2.5c0,0.1-0.1,0.2-0.2,0.3c-0.3,0.7-0.6,1.3-0.8,2c-0.3,0.8-0.7,1.6-0.7,2.4
	c0,0.2-0.1,0.3-0.2,0.5c-0.1,0.7-0.3,1.3-0.4,2c0,0.8,0,1.6,0.1,2.3c0.1,0.9,0.1,1.8,0.3,2.6c0.3,1.1,0.6,2.3,1,3.4
	c0.4,1,0.9,2,1.4,3c0.1,0.3,0.3,0.6,0.5,0.9c0.6,0.7,0.9,1.7,1.7,2.3c0.4,0.3,0.8,0.7,1.2,1.2c0.5,0.6,1.1,1,1.7,1.2
	c0.7,0.3,1.3,0.6,2.1,0.8c0.9,0.2,1.7,0.4,2.5,0c0.1,0,0.2-0.1,0.3-0.1c0.6,0,1.1-0.3,1.6-0.7c1-0.8,2-1.6,2.7-2.7
	c0.3-0.5,0.6-1.1,0.9-1.7c0.3-0.6,0.5-1.4,0.8-2c0.7-1.1,1-2.4,1.4-3.6c0.2-0.7,0.4-1.4,0.8-2c0.4-0.8,0.7-1.6,0.8-2.5
	c0-0.2,0.1-0.4,0.2-0.5c0.7-1.5,1.1-3.1,1.3-4.8c0-0.1,0-0.2,0-0.3c0-1,0.5-2,0.3-3c-0.1-0.3,0-0.6,0-0.9c0-0.7,0-1.3,0-2
	c0-0.1,0-0.2-0.1-0.3c-0.2-0.3-0.2-0.7-0.1-1.1c0-0.2,0.1-0.4,0-0.5c-0.3-0.8-0.1-1.5,0.1-2.3c0.2-0.7,0.4-1.3,0.7-2
	c0.4-1.1,0.8-2.2,1.6-3c0.4-0.3,0.7-0.7,1-1.1c0.2-0.3,0.4-0.6,0.9-0.6c0.1,0,0.3-0.1,0.3-0.2c0.3-0.6,0.7-1,1.4-1.2
	c0.1,0,0.1-0.1,0.2-0.1c0.7-0.5,1.4-1,2.3-1.1c0.6-0.1,1.2-0.6,1.9-0.2c0.1,0,0.2,0,0.3-0.1c0.1,0,0.3-0.1,0.4,0
	c0.4,0.2,1,0.2,1.3,0.7c0.3,0.4,0.8,0.6,1.2,0.9c0,0,0.1,0.1,0.1,0.1c0.6,0.8,1.2,1.6,1.8,2.4c0.3,0.4,0.6,0.7,0.7,1.1
	c0.3,0.8,0.6,1.5,0.9,2.3c0.1,0.4,0.1,0.9,0.4,1.3c0.1,0.1,0,0.2,0,0.3c0,0.2,0,0.4,0,0.5c0.4,0.6,0.5,1.3,0.6,2.1
	c0.1,0.7,0.2,1.4,0.4,2.1c0,0.1,0.1,0.2,0.1,0.3c0.3,0.9,0.7,1.9,1,2.8c0.2,0.5,0.3,1,0.6,1.4c0.3,0.6,0.6,1.2,0.9,1.8
	c0.2,0.4,0.4,0.9,0.7,1.2c0.3,0.4,0.6,0.8,0.7,1.2c0,0.1,0.1,0.2,0.1,0.2c0.8,0.7,1.2,1.6,1.8,2.4c0.1,0.2,0.3,0.3,0.5,0.4
	c0.7,0.3,1.5,0.6,2.2,0.9c0.5,0.2,0.9,0.3,1.4,0.4c1.1,0.3,2.2,0.4,3.2,0.7c1,0.3,1.6,1,1.6,2c0.1,1.7-1.1,2.4-2.5,2.6
	c-0.7,0.1-1.5,0-2.2-0.2c-0.7-0.2-1.4-0.6-1.8-1.3c-0.4-0.7-0.5-1.5-0.7-2.2c-0.1-0.6-0.1-0.6-0.7-0.7c-0.1,0-0.2-0.1-0.3-0.1
	c-0.7-0.1-1.3,0.3-1.3,1c0,1,0.2,2,0.6,2.8c0.5,0.9,1.1,1.6,2,2.2c1,0.6,2.1,0.8,3.1,0.9c1.1,0.1,2.2-0.1,3.3-0.5
	c1.1-0.5,2.1-1.2,2.5-2.3c0.4-1.2,0.6-2.5,0.1-3.7C157,195.2,156.7,194.7,156.3,194.3z M78.9,161.2c-1.1,0.5-2.4,0.6-3.6-0.3
	c0.6-0.6,1.4-0.6,2-0.8c0.5-0.2,0.9-0.4,1.4-0.5c0.3-0.1,0.7-0.1,1-0.3c0.3-0.1,0.5-0.3,0.8-0.4C80.3,160,79.8,160.8,78.9,161.2z
	 M124.6,166.8c-0.4,0.4-0.8,0.7-1.1,1.1c-0.5,0.5-1,1-1.5,1.4c-0.9,0.8-1.8,1.7-2.6,2.6c-0.3,0.4-0.5,0.9-0.8,1.3
	c-0.1,0.2-0.2,0.4-0.3,0.4c-0.5,0.1-0.6,0.6-0.8,1c-0.2,0.5-0.4,1.1-0.6,1.6c-0.1,0.2-0.1,0.6,0,0.8c0.1,0.3,0.2,0.6,0.1,0.9
	c-0.2,0.6-0.1,1.1,0.1,1.7c0.3,0.7,0.4,1.5,0.7,2.3c0.3,1.2,0.3,2.4,0.5,3.6c0.1,1.2,0,2.3-0.2,3.4c-0.2,1.1-0.6,2.2-0.9,3.2
	c-0.1,0.4-0.2,0.7-0.3,1c-0.4,1-0.7,2-1.1,3c-0.2,0.4-0.3,0.8-0.5,1.1c-0.3,0.7-0.6,1.5-1,2.2c-0.2,0.4-0.5,0.8-0.7,1.2
	c-0.2,0.4-0.4,0.7-0.6,1.1c-0.2,0.2-0.5,0.4-0.7,0.6c-0.4,0.4-0.8,0.9-1.4,1.1c-1.3,0.4-2.5,0.6-3.7-0.2c-0.8-0.5-1.4-1.2-2-1.8
	c-0.1-0.1-0.1-0.1-0.2-0.2c-0.1-0.6-0.6-1-1-1.4c-0.5-0.5-0.7-1-0.8-1.6c-0.1-0.2-0.1-0.5-0.2-0.7c-0.3-0.7-0.6-1.3-0.8-2
	c-0.2-0.8-0.5-1.6-0.4-2.4c0-0.3-0.1-0.5-0.1-0.8c-0.2-0.8,0-1.7,0-2.5c0-0.6,0.1-1.1,0.3-1.7c0.3-1,0.7-1.9,1.1-2.9
	c0-0.1,0.2-0.2,0.3-0.5c0,0.9,0,1.6,0,2.3c0,0.8,0.1,1.7,0.1,2.5c0,0.6,0,1.2,0.1,1.8c0,0.4,0,0.8,0.1,1.2c0.1,0.3,0.2,0.5,0.6,0.5
	c0.6,0,1.2,0,1.8,0c0.9,0,1.7-0.1,2.6-0.1c1.1,0,2.1-0.1,3.2-0.1c0.4,0,0.8,0,1.2,0c0.7,0,1-0.3,1.1-1c0.1-1-0.3-1.4-1.3-1.4
	c-1.2,0-2.3,0.1-3.5,0.2c-0.8,0-1.7,0.1-2.5,0.1c-0.6,0-0.9-0.1-0.8-0.9c0-0.9,0-1.9,0-2.8c0-1-0.1-2-0.2-3c0-0.8-0.1-1.6-0.1-2.3
	c0-0.4,0-0.8,0.4-1c0,0,0.1-0.1,0.1-0.1c0.1-0.8,0.9-1.2,1.1-2c0.1-0.2,0.1-0.5,0.1-0.9c0.6-0.4,0.4-1,0.3-1.6
	c-0.1-0.5-0.2-1.1-0.4-1.6c-0.2-0.6-0.4-1.1-0.9-1.5c-0.4-0.3-0.8-0.9-1.2-1.3c-0.5-0.5-0.9-0.9-1.4-1.4c-0.2-0.2-0.5-0.4-0.8-0.6
	c-1.1-0.9-2.2-1.8-3.2-2.8c-0.8-0.8-1.8-1.4-2.6-2.2c-0.2-0.2-0.4-0.5-0.6-0.7c-0.8-0.7-1.7-1.4-2.5-2.2c-0.9-0.8-1.7-1.7-2.6-2.6
	c-0.5-0.5-1-0.9-1.5-1.4c-0.7-0.6-1.3-1.2-2-1.8c-0.1-0.1-0.3-0.2-0.5-0.3c-0.5-0.3-0.9-0.6-1.4-0.8c-0.3-0.2-0.7-0.3-1-0.4
	c-0.1,0-0.2,0-0.3,0c-0.6-0.5-1.4-0.3-2.1-0.5c-0.3-0.1-0.7,0.1-1,0.2c-0.5,0.1-1,0.3-1.5,0.4c-0.4,0.1-0.7,0.4-1,0.6
	c-0.3,0.3-0.8,0.4-1.2,0.6c-0.9,0.4-1.7,0.9-2.6,1.3c-0.4,0.2-0.9,0.3-1.4,0.5c0-0.2,0-0.4,0-0.5c0-1.3-0.1-2.5,0-3.8
	c0-1.2,0.4-2.4,1.3-3.3c0.4-0.4,1-0.6,1.6-0.6c0.1,0,0.2,0,0.3,0c1-0.1,1.7,0.3,2.3,1.1c0.4,0.6,0.8,1.2,0.9,1.9
	c0.1,0.7,0.7,1.2,1.4,1.1c0.8-0.1,1-0.4,1-1.2c0-1.2-0.5-2.2-1.2-3.2c-0.8-1.1-2-1.7-3.3-1.9c-1-0.1-2.1-0.2-3.1,0.2
	c-1.3,0.5-2.4,1.3-3,2.7c-0.5,1.2-0.7,2.4-0.7,3.8c0.1,1.4,0,2.7,0.1,4.1c0,0.3-0.2,0.4-0.4,0.4c-0.6,0.1-1.2,0.1-1.8,0.2
	c-1,0.1-1.9,0-2.9-0.3c-0.6,0.2-1-0.3-1.6-0.4c-0.5,0-1-0.4-1.5-0.5c-0.3-0.1-0.6-0.4-1-0.3c-0.1,0-0.1,0-0.2,0
	c-1.2-0.9-2.6-1.4-3.5-2.5c-0.6-0.7-0.7-1.5-0.4-2.4c0.3-0.8,1-1.3,1.4-2.1c0.1-0.2,0.3-0.2,0.5-0.4c0.3-0.3,0.6-0.5,1-0.8
	c0.4-0.2,0.8-0.4,1.2-0.6c0.6-0.3,1.3-0.6,1.8-1c0.9-0.6,1.9-0.8,2.8-1.3c0.5-0.2,1-0.5,1.5-0.7c0.8-0.3,1.5-0.4,2.3-0.7
	c1-0.3,2-0.4,3-0.5c0.9-0.1,1.7,0,2.6,0.1c0.3,0,0.6,0,0.9,0c0.4,0,0.8,0,1.2,0c0.6,0.1,1.1,0.3,1.7,0.3c1.1,0,2.2,0,3.3-0.6
	c0.4-0.2,0.8-0.4,1.3-0.5c0.8-0.2,1.4-0.7,2-1.2c0.7-0.6,1.4-1.1,2.1-1.7c0.4-0.3,0.7-0.7,1.1-1c0.4-0.4,0.9-0.8,1.5-1
	c0.1,0,0.2-0.1,0.3-0.2c0.5-1,1.4-1.5,2.2-2.2c0.3-0.3,0.6-0.4,0.8-0.7c0.5-0.7,1.4-1,1.8-1.8c0,0,0.1-0.1,0.1-0.1
	c1-0.5,1.8-1.3,2.5-2.1c0.2-0.2,0.3-0.4,0.5-0.7c0.3,0.9,0.5,1.6,0.4,2.4c0.1,0.1,0.3,0.1,0.4,0.2c0,0.1,0,0.1,0,0.2
	c0,0.8,0.2,1.6,0.6,2.4c0.1,0.2,0.1,0.5,0.2,0.8c0.2,0.3,0.4,0.6,0.5,1c0.1,0.2,0.2,0.5,0.2,0.6c-0.1,0.5,0.2,0.8,0.3,1.2
	c0.2,0.5,0.5,1,0.7,1.6c0.1,0.2,0,0.4,0,0.5c0,0.1,0,0.3,0,0.3c0.2,0.2,0.4,0.5,0.1,0.8c0.3,0.1,0.2,0.5,0.3,0.7
	c0.4,0.5,0.4,1.2,0.8,1.6c0.4,0.5,0.4,1.2,1,1.6c0.1,0.1,0.2,0.4,0.2,0.5c-0.1,0.3,0.2,0.6,0.3,0.8c0.3,0.7,0.8,1.3,1.3,1.9
	c0,0,0.1,0.1,0.1,0.2c0.1,0.9,0.8,1.5,1.3,2.2c0.6,1,1.3,1.8,2.2,2.6c0.1,0.1,0.1,0.2,0.2,0.3c0.3,1.1,1,1.8,1.8,2.5
	c0.1,0.1,0.2,0.1,0.2,0.2c0.6,0.9,1.6,1.5,2.3,2.3c0.6,0.7,1.3,1.1,2.1,1.5c0.9,0.4,1.8,0.9,2.4,1.8c0.2,0.4,0.6,0.8,1,1.1
	c0.4,0.2,0.8,0.4,1.2,0.4c0.3,0,0.6,0.1,0.8,0.2c0.4,0.1,0.7,0.4,1,0.5c0.1,0,0.2,0,0.3,0c0.4,0,0.7,0.1,1.1,0.1
	c0,0.1,0,0.1,0.1,0.2C125.1,166.4,124.9,166.6,124.6,166.8z"/>
<path d="M101.2,92.1C101.2,92.1,101.2,92.1,101.2,92.1c0.3-0.3,0.5-0.4,0.6-0.5C101.7,91.6,101.5,91.8,101.2,92.1z"/>
<path d="M105.1,102.6c0.1-0.2,0-0.5-0.2-0.9c0-0.1,0.1-0.1,0.1-0.2c-0.1,0.1-0.1,0.1-0.1,0.2C105.1,102.1,105.2,102.4,105.1,102.6z"
	/>
<path d="M219.6,121.5c0.1-0.4,0-0.6-0.3-0.8c-0.9-0.8-1.8-1.5-2.9-1.9c-0.6-0.2-1-0.7-1.7-0.6c-1.1-0.6-2.3-0.6-3.4-0.9
	c-0.1,0-0.2,0-0.3,0c-0.4,0.1-0.8,0.1-1.3-0.1c-0.4-0.1-0.9,0-1.4,0c-0.7,0-1.4-0.2-2.1-0.1c-0.7,0.1-1.2-0.2-1.7-0.4
	c0-1.1,0.1-2.2,0-3.2c-0.1-0.8,0.2-1.6-0.1-2.4c-0.1-0.3-0.2-0.5-0.6-0.6c-0.3,0-0.7-0.1-1.1,0c-0.3,0-0.5,0.2-0.6,0.5
	c-0.2,0.5-0.1,1-0.1,1.5c0,1.2,0,2.4,0,3.6c-0.1,0-0.1,0.1-0.1,0.1c-1.8-0.4-3.4-1.3-5-2.1c-0.8-0.4-1.5-0.9-2.3-1.3
	c-0.7-0.4-1.3-0.8-2-1.2c-0.2-0.1-0.4-0.2-0.6-0.3c-0.2-0.1-0.4-0.1-0.5-0.2c-0.8-0.7-1.9-1-2.7-1.7c-0.3-0.2-0.5-0.5-0.8-0.6
	c-0.7-0.4-1.5-0.5-2.1-1.1c-0.1-0.1-0.3-0.1-0.4-0.1c-0.7-0.5-1.5-0.8-2-1.6c-0.3-0.5-0.7-0.9-1.1-1.4c-0.2-0.4-0.7-0.7-0.4-1.2
	c0.5-0.8,0.5-1.7,1.4-2.4c0.7-0.5,1.2-1.4,1.9-2c0.6-0.4,0.8-1.2,1.6-1.4c0.1,0,0.1-0.1,0.2-0.2c0.6-0.6,1.2-1.2,1.8-1.9
	c0.4-0.4,0.9-0.8,1.2-1.3c0.7-1.1,1.7-2,2.4-3.2c0.5-0.8,0.9-1.6,1.3-2.5c0.5-1.1,0.9-2.2,1-3.4c0.1-1.4,0.2-2.9-0.4-4.3
	c-0.1-0.1-0.1-0.3-0.1-0.5c0-1-0.5-1.7-1-2.5c-0.2-0.3-0.4-0.6-0.4-0.9c-0.1-0.8-0.1-1.7-0.1-2.5c0-0.4-0.2-0.5-0.4-0.6
	c-0.3-0.1-0.6-0.1-0.9-0.1c-0.3,0-0.6,0-0.8-0.1c-0.6-0.5-1-1.2-1.6-1.8c-0.8-0.8-1.6-1.7-2.5-2.4c-0.6-0.4-1.1-0.9-1.6-1.4
	c-0.3-0.2-0.6-0.4-0.8-0.6c-0.4-0.4-0.8-0.6-1.3-0.8c-0.6-0.2-1.2-0.5-1.6-1c-0.1-0.1-0.3-0.2-0.4-0.2c-0.8-0.1-1.6-0.4-2.3-0.7
	c-0.2-0.1-0.5-0.3-0.6-0.2c-0.4,0.1-0.8,0-1.2-0.1c-0.4-0.1-0.8-0.2-1.2-0.2c-0.8,0-0.9,0-1.3-0.7c-0.3-0.5-0.7-0.9-1.2-1.2
	c-0.9-0.7-2.1-0.9-3.1-0.9c-1.3,0-2.6,0.3-3.8,1.2c-0.4,0.3-0.6,0.7-0.9,1c-0.3,0.4-0.6,0.9-0.8,1.4c-0.3,0.7-0.4,1.5-0.4,2.3
	c0,1,0,2.1,0.1,3.1c0,0.3,0,0.7-0.2,0.9c-0.8,0.6-1.1,1.6-1.7,2.2c-0.3,0.3-0.5,0.8-0.8,1.2c-0.3,0.4-0.4,0.9-1,1.1
	c-0.1,0-0.2,0.2-0.1,0.3c0.1,0.5-0.1,0.9-0.6,1.2c-0.1,0-0.1,0.2-0.1,0.2c-0.5,0.8-1.2,1.5-1.5,2.4c0,0.1-0.2,0.2-0.2,0.2
	c-0.1,0.1-0.2,0.3-0.2,0.4c-0.2,0.6-0.6,0.8-1.2,0.6c-0.4-0.2-0.8-0.3-1.1-0.6c-0.5-0.4-1.2-0.5-1.8-0.6c-0.2,0-0.5,0.1-0.8-0.1
	c-0.3,0.2-0.6,0.3-0.8,0.5c-0.6-0.8-1.3-1.6-1.8-2.5c-0.3-0.4-0.7-0.9-0.5-1.5c0-0.2-0.2-0.5-0.3-0.7c-0.1-0.1-0.3-0.2-0.3-0.3
	c0-0.6-0.4-1-0.7-1.5c-0.4-0.9-0.5-2-1.3-2.8c0.2,0,0.4,0,0.6,0.1c0.6,0.2,1.3,0.3,2,0.4c1.5,0.1,2.7-0.3,3.8-1.1
	c1.5-1.1,2-2.6,2.1-4.4c0-0.2-0.1-0.5-0.2-0.7c-0.3-0.4-1-0.5-1.6-0.3c-0.3,0.1-0.6,0.3-0.6,0.8c0,0.4-0.1,0.9-0.3,1.3
	c-0.3,0.8-0.8,1.3-1.6,1.7c-1.2,0.6-3,0.4-4-0.9c-0.4-0.6-0.5-1.2-0.7-1.8c-0.1-0.2,0-0.4,0-0.7c0-0.6,0-1.3-0.1-1.9
	c-0.1-1.2-0.2-2.4,0.1-3.6c0.3-1.5,1-2.4,2.5-2.7c0.3-0.1,0.6-0.1,0.9-0.1c0.5,0.1,1.2,0.2,1.6,0.5c0.8,0.6,1.2,1.4,1.3,2.4
	c0.1,0.9,0.5,1.2,1.4,1.2c0.1,0,0.2,0,0.3,0c0.4,0,0.8-0.3,0.8-0.7c0-0.3,0-0.7-0.1-1c-0.2-0.6-0.4-1.1-0.6-1.7
	c-0.2-0.7-0.8-1.2-1.3-1.6c-1-0.9-2.3-1.2-3.7-1.3c-1,0-2,0.1-2.8,0.6c-1.3,0.7-2.2,1.8-2.6,3.2c-0.3,1.1-0.4,2.3-0.4,3.5
	c0,1,0.3,2.1,0,3.1c-0.4-0.6-0.9-1.1-1.1-1.7c-0.2-0.9-1.1-1.5-1.1-2.6c0,0,0-0.1-0.1-0.1c-0.6-0.6-0.7-1.5-1-2.2
	c-0.2-0.5-0.3-1.1-0.6-1.6c-0.2-0.4-0.4-0.7-0.2-1.1c0.1-0.1-0.1-0.4-0.2-0.6c-0.1-0.3-0.3-0.6-0.3-0.8c0.1-1.1-0.4-2-0.5-3
	c-0.1-0.6-0.2-1.3-0.4-1.9c-0.1-0.5-0.1-1-0.5-1.5c-0.5-0.7-0.8-1.5-1.2-2.3c-0.1-0.3-0.2-0.7-0.4-0.8c-0.5-0.2-0.8-0.7-1.2-1
	c-0.4-0.3-0.9-0.5-1.2-0.8c-0.6-0.7-1.5-0.3-2.1-0.7c-1.5,0.1-2.9,0.6-4,1.6c-0.8,0.7-1.5,1.4-2.2,2.2c-0.9,1.1-1.5,2.4-2.3,3.6
	c-0.5,0.9-0.8,1.8-1.2,2.7c-0.1,0.3-0.2,0.6-0.4,1c-0.2,0.4-0.3,0.8-0.5,1.2c-0.1,0.1-0.1,0.3-0.1,0.5c-0.1,0.2-0.1,0.5-0.1,0.7
	c-0.6,1.6-1.2,3.3-1.8,4.9c-0.2,0.4-0.4,0.8-0.5,1.3c-0.1,0.9-0.5,1.7-0.8,2.5c-0.2,0.5-0.2,0.9-0.4,1.4c-0.2,0.6-0.6,1.1-0.3,1.7
	c0,0.1,0,0.1,0,0.2c-0.3,0.5-0.2,1-0.2,1.5c-0.1,1,0,2-0.1,3c-0.1,1.3,0.6,2.3,1.4,2.6c0.5,0.2,1.2,0,1.3-0.4
	c0.4-0.8,0.6-1.7,0.4-2.5c-0.2-0.9,0-1.7,0.1-2.6c0-0.5,0.2-1.1,0.2-1.6c0-0.9,0.3-1.7,0.5-2.5c0.3-1,0.6-2,0.9-2.9
	c0.2-0.6,0.6-1.1,0.8-1.8c0.2-1,0.8-1.9,1.1-2.9c0.5-1.3,1-2.7,1.7-4c0.1-0.3,0.2-0.6,0.3-0.8c0.3-0.6,0.6-1.2,0.9-1.8
	c0-0.1,0.1-0.1,0.2-0.2c0.3-0.1,0.4-0.4,0.5-0.7c0.1-0.4,0.2-0.7,0.7-0.7c0.3,0,0.6-0.2,0.6-0.6c0-0.3,0.2-0.5,0.4-0.6
	c0.5-0.2,1-0.5,1.5-0.7c0.5-0.2,0.9-0.3,1.3,0.2c0.1,0.1,0.2,0.2,0.3,0.1c0.5-0.3,0.8,0.3,1.3,0.3c0.1,0,0.4,0.2,0.4,0.3
	c0.1,0.5,0.4,1,0.8,1.4c0,0,0,0,0,0.1c0.5,0.6,0.3,1.5,0.8,2c-0.1,0.6,0.3,1,0.4,1.5c0.1,1,0.9,1.9,0.7,2.9c0,0.1,0.1,0.2,0.1,0.2
	c0.2,0.5,0.5,1,0.7,1.6c0.2,0.5,0.2,0.9,0.5,1.3c0.3,0.4,0.5,0.8,0.7,1.2c0.3,0.8,0.7,1.5,1.1,2.2c0.3,0.5,0.5,1,0.8,1.5
	c0.4,0.7,0.7,1.4,1.1,2.1c0.4,0.7,0.8,1.3,1.1,2c0.2,0.6,0.7,1.2,0.7,1.9c0,0.1,0.1,0.2,0.2,0.3c0.5,0.5,0.5,1.2,0.9,1.7
	c0.1,0.1,0,0.3,0.1,0.5c0,0.1,0,0.2,0.1,0.3c0.4,0.6,0.6,1.4,0.8,2.1c0.1,0.4,0.3,0.9,0.5,1.3c0.1,0.2,0.1,0.4,0.2,0.7
	c0.1,0.6,0.2,1.1,0.4,1.7c0.3,0.8,0.7,1.5,1,2.2c-0.1,0.3-0.2,0.5-0.3,0.7c-0.2,0-0.4,0-0.5,0.1c-0.5,0.4-1,0.7-1.5,1.1
	c-0.1,0.1-0.2,0.4-0.3,0.4c-0.6,0-0.7,0.5-1,0.7c-0.1,0.1-0.1,0.3-0.1,0.4c0,0.1,0,0.2,0,0.2c-0.6,0.4-0.7,1.1-1,1.7
	c-0.3,0.5-0.7,0.9-1.1,1.4c0.2,0.6,0.1,0.8-0.4,1.3c-0.1,0.1-0.2,0.3-0.3,0.4c0.1,0.3,0.4,0.5,0,0.7c-0.2,0.1-0.5,0.2-0.7,0.3
	c0,0.3,0.1,0.5,0,0.7c-0.2,0.5-0.4,1-0.6,1.5c-0.2,0.5-0.4,1-0.3,1.6c0,0.2,0.2,0.6,0,0.7c-0.5,0.4-0.4,1.2-0.9,1.5
	c-0.1,0.1-0.1,0.3-0.1,0.4c0.1,0.4,0.2,0.9,0.3,1.3c-0.2,0.1-0.4,0.3-0.6,0.4c0.2,0.2,0.3,0.4,0.4,0.6c-0.4,0.7-0.3,1.4-0.4,2.1
	c0,0.1,0,0.3,0,0.4c-0.2,0.6,0.1,1.1,0.2,1.7c-0.1,0-0.2,0.1-0.4,0.1c0.1,0.7,0.2,1.4,0.3,2.1c-0.1,0.1-0.2,0.3-0.2,0.4
	c0,0.6,0.1,1.3-0.2,1.9c0,0.1,0,0.2,0,0.3c0.1,0.5,0.1,0.9-0.2,1.4c0,0.1-0.1,0.2-0.1,0.3c0,0.4,0.1,0.8,0.2,1.1
	c0,0.1,0,0.3-0.1,0.5c0,0.1-0.2,0.3-0.2,0.4c0.1,0.7,0.4,1.4,0.6,2c-0.1,0.1-0.2,0.3-0.2,0.5c-0.1,0.2-0.1,0.4-0.1,0.6
	c-0.1,0.3-0.1,0.5,0,0.8c0.1,0.3,0.2,0.7,0.1,0.9c-0.3,0.4-0.2,0.7,0,1c-0.1,0.2-0.2,0.3-0.3,0.4c0.8,0.9,0.7,1.1,0.5,2
	c-0.1,0.5-0.1,0.8,0.2,1.2c-0.1,0.3-0.3,0.5-0.2,0.7c0.1,0.8,0.3,1.7,0.5,2.5c0.1,0.4,0.2,0.8,0.3,1.2c0.2,0.4,0.2,0.8,0,1.1
	c0,0.1,0,0.3,0,0.4c0,0.2,0,0.3,0.1,0.5c0.1,0.5-0.1,1.1,0.4,1.5c0.1,0.1,0.1,0.2,0.1,0.4c0.1,0.6,0.2,1.1,0.3,1.7
	c0.1,0.7,0.3,1.4,0.3,2.1c0,0.3,0,0.6,0.2,0.8c0.1,0.1,0.1,0.2,0.1,0.3c-0.1,0.6,0.2,1.1,0.5,1.6c-0.3,0.6,0,1,0.2,1.4
	c0,0.6-0.1,1.1,0,1.5c0.1,0.5,0.5,0.9,0.7,1.3c0.2,0.3,0.4,0.6,0.1,0.9c0,0.1,0,0.2,0.1,0.3c0,0.1,0.1,0.2,0.1,0.2
	c-0.4,0.4,0.2,0.7,0.1,1.1c0.2-0.1,0.3-0.1,0.4-0.1c0,0.2-0.1,0.5,0,0.6c0.1,0.3,0.4,0.5,0.6,0.8c0.1,0.2,0.2,0.3,0.1,0.5
	c-0.1,0.3-0.1,0.7,0,1c0.3,0.7,0.7,1.4,1,2.1c-0.3,0.5-0.3,0.5,0.1,1c0.1,0.1,0.1,0.2,0.1,0.3c0.4,0.6,0.5,1.4,0.9,2.1
	c0.4,0.8,1,1.5,1.2,2.4c0,0.1,0.1,0.2,0.1,0.2c0.3,0.4,0.6,0.8,0.9,1.1c-0.1,0.2-0.2,0.3-0.3,0.5c0.2,0.3,0.4,0.5,0.7,0.8
	c0.1,1.4,0.7,2.5,1.7,3.3c0,0.5-0.1,1,0,1.4c0.3,0.6,0.6,1.3,1.3,1.7c0.7,0.5,1.4,1,1.8,1.8c0.2,0.3,0.3,0.5,0.6,0.8
	c-0.2,0.3-0.2,0.7,0.2,1c0.1,0.1,0.2,0.3,0.3,0.4c0.4,0.4,0.7,0.9,1.1,1.3c0.2,0.2,0.5,0.3,0.6,0.6c0.4,0.6,0.9,0.9,1.5,1.2
	c0.2,0.1,0.5,0.2,0.6,0.4c0.4,0.6,1,0.8,1.5,1.1c0.3,0.2,0.6,0.4,1,0.3c0.3,0.4,0.8-0.1,1,0.3c0,0,0.1,0,0.2-0.1
	c0.3-0.3,0.6-0.1,0.9,0.2c0,0,0.1,0,0.2,0c0.1-0.1,0.1-0.2,0.2-0.3c0.5,0.2,1.1,0.2,1.7,0.1c0.1,0,0.2,0,0.3,0.1
	c1,0.4,0.9,0.4,1.6-0.4c0.1-0.1,0.3-0.3,0.4-0.3c0.3-0.1,0.6-0.2,0.9-0.2c0.3,0,0.6,0,0.9,0c0-0.2,0-0.3,0.1-0.5
	c0.7,0,1-0.2,1.3-0.8c0.1-0.2,0.2-0.4,0.4-0.5c0.4-0.4,0.7-0.4,1.2-0.1c-0.2,0.7-0.3,1.5-0.6,2.2c-0.3,0.9-0.7,1.8-1.1,2.8
	c-0.1,0.3-0.3,0.6-0.4,1c-0.3,0.8-0.6,1.5-1,2.3c-0.3,0.7-0.8,1.4-1.1,2.1c-0.2,0.5-0.6,0.7-1,0.7c-1.1,0.1-2.1,0-3.2,0
	c-0.9,0-1,0.1-1.2,0.9c-0.2,0.7,0.4,1.5,1.1,1.4c0.2,0,0.3-0.1,0.5,0c0.6,0.2,1.2,0,1.8,0c-0.2,0.3-0.3,0.6-0.5,0.9
	c-0.2,0.3-0.3,0.6-0.2,0.9c0.1,0.3,0.1,0.5-0.2,0.7c-0.1,0.1-0.2,0.2-0.2,0.3c-0.1,0.3-0.1,0.5,0.2,0.7c0.2,0.2,0.5,0.1,0.6-0.1
	c0.1-0.2,0.3-0.4,0.4-0.6c0.3-0.1,0.6-0.1,1-0.2c0,0.3,0.1,0.6,0.1,0.9c0,0.8-0.1,1.6,0,2.4c0.1,0.9,0.1,1.7,0.1,2.6
	c0,1.4,0.1,2.7,0.1,4.1c0,0.5,0.2,0.8,0.6,1c0.4,0.2,1.5,0,1.7-0.3c0.1-0.1,0.1-0.2,0.1-0.2c0-0.4,0.1-0.7,0.1-1.1
	c0-1.4,0-2.7-0.1-4c0-1.3,0-2.7-0.1-4c0-0.9-0.1-1.8-0.1-2.7c0-0.2-0.1-0.5,0-0.7c0.1-0.3,0.2-0.5,0.5-0.6c0.2,0,0.3,0,0.5,0
	c0.9,0,1.8-0.1,2.7-0.1c0.3,0,0.5-0.1,0.6-0.4c0.1-0.3,0.3-0.7,0.3-1c0-0.6-0.6-1-1.2-0.9c-0.7,0.1-1.4,0.1-2.1,0.1
	c0.3-0.6,0.4-1.2,0.7-1.6c0.3-0.4,0.5-0.8,0.7-1.3c0.4-0.8,0.8-1.6,1.2-2.4c0.4-1,1-2,1.5-3c0-0.1,0.1-0.1,0.1-0.2
	c-0.1-0.9,0.9-1.6,0.7-2.5c0-0.1,0.2-0.2,0.2-0.3c0.3-0.5,0.5-1,0.6-1.6c0-0.4,0.1-0.8,0.2-1.2c0.2-0.7,0.2-1.4-0.4-2
	c-0.4-0.3-0.6-0.7-0.9-1.1c0.2-0.4,0.3-0.8,0.4-1.2c0.2,0,0.3,0,0.5,0c-0.2-0.2-0.3-0.4-0.4-0.5c0.1-0.3,0.2-0.6,0.3-1
	c0-0.3-0.1-0.7-0.2-1.1c0.2,0,0.4,0,0.6-0.1c-0.2-0.5,0-0.8,0.3-1.1c0-0.2-0.1-0.4-0.1-0.5c0.1-0.7-0.2-1.5,0.1-2.2
	c0.1-0.4-0.2-0.9,0.2-1.2c0,0,0-0.2,0-0.3c0-0.5-0.1-1.1,0-1.6c0.2-0.7-0.1-1.4,0-2c0-0.3-0.1-0.6,0-0.9c0.1-0.1,0-0.4-0.1-0.5
	c-0.5-0.4,0-1-0.5-1.4c0.1-0.1,0.2-0.2,0.2-0.2c0-0.6,0.1-1,0-1.4c0-0.4-0.2-0.9,0.2-1.2c-0.2-0.2-0.3-0.3-0.4-0.5
	c-0.1-0.2-0.1-0.5,0-0.5c0.5-0.1,0.1-0.4,0.2-0.6c0-0.2,0-0.4,0-0.7c0-0.6,0-1.1,0-1.7c0-0.6-0.1-1.3-0.1-1.9
	c-0.1-0.6,0.2-1.1-0.2-1.7c-0.1-0.2-0.2-0.4-0.2-0.6c-0.1-0.5-0.2-0.9-0.1-1.4c0-0.3-0.3-0.7-0.2-0.9c0.2-0.7-0.3-1.2-0.4-1.9
	c-0.1-0.5-0.3-0.9-0.4-1.5c0.1-0.1,0.2-0.4,0.3-0.6c-0.3-0.2-0.4-0.4-0.4-0.6c0-0.2,0.1-0.5,0.2-0.7c-0.2-0.3-0.3-0.4-0.4-0.6
	s0-0.3,0.2-0.5c-0.1-0.2-0.3-0.3-0.3-0.5c-0.1-0.9-0.7-1.6-0.8-2.5c0-0.4,0-0.7,0-1.1c-0.2-0.7-0.3-1.5-0.4-2.2
	c-0.1-0.6-0.4-1.2-0.7-1.9c-0.1-0.2-0.2-0.5-0.2-0.7c-0.1-0.3-0.1-0.7-0.2-0.9c-0.2-0.3-0.5-0.6-0.4-1.1c0-0.1-0.1-0.2-0.2-0.2
	c0.1-0.2,0.3-0.4,0.3-0.5c0-0.9-0.2-1.7-0.8-2.4c-0.1-0.1-0.2-0.2-0.3-0.4c-0.2-0.8-0.9-1.2-1.4-1.7c-0.6-0.5-1.4-0.8-2.1-1.2
	c-0.1,0.1-0.2,0.2-0.3,0.3c-0.2-0.1-0.3-0.3-0.4-0.3c-1.2,0.4-2.3,0.6-3.4,0.4c-0.4,0.6-0.7,1.1-1,1.6c0,0,0.1,0.1,0.1,0.2
	c-0.1,0.7-0.1,1.3,0.1,2c0.1,0.5,0.1,1,0.3,1.3c0.2,0.3,0.5,0.6,0.5,1c0.1,0.6,0.6,1,0.5,1.6c0,0,0,0.1,0.1,0.1
	c0.3,0.7,0.7,1.4,0.9,2.2c0.1,0.6,0.4,1.2,0.5,1.7c0.1,0.4,0.4,0.8,0.3,1.2c0,0.5,0.2,0.8,0.4,1.1c0.4,0.7,0.7,1.4,0.9,2.1
	c0.1,0.3,0.2,0.7,0.3,1c0.1,0.2,0.2,0.5,0.2,0.7c0.1,1.1-0.1,2.3,0.5,3.3c0,0.1,0,0.2,0,0.3c-0.2,0.4-0.2,0.7,0.1,1
	c0.1,0.1,0.1,0.2,0.1,0.2c-0.2,0.5,0,0.9,0,1.4c0,0.4,0.1,0.8,0.3,1.2c0.2,0.4,0.3,0.9,0.4,1.3c0.1,0.6,0,1.1,0,1.7
	c0,0.1-0.1,0.3,0,0.4c0.5,0.8,0.1,1.6,0.3,2.4c0,0,0,0.1,0,0.1c0,0.1,0,0.2,0.1,0.3c0.4,0.5,0.5,1.1,0.3,1.7
	c-0.2,0.5-0.3,1.1,0.1,1.6c0,0,0,0.2,0,0.2c-0.2,0.3,0,0.5,0.1,0.7c0.1,0.4,0.4,0.8,0.3,1.1c-0.2,0.7-0.2,1.3,0.1,1.9
	c-0.4,0.3-0.6,0.8-0.5,1.3c0,0.5,0.1,0.9,0.3,1.3c0.3,0.4,0.4,0.9-0.1,1.3c-0.1,0,0,0.2,0,0.3c0,0.1,0,0.2,0,0.3
	c-0.5,0.5-0.4,1.1-0.2,1.6c0.1,0.3,0.1,0.5-0.1,0.8c-0.2,0.4-0.6,0.9-0.3,1.4c-0.1,0.2-0.3,0.4-0.4,0.7c0.1,0.2,0.3,0.4,0.4,0.6
	c-0.6,0.4-0.7,0.6-0.5,1c-0.3,0.3-0.5,0.5-0.8,0.8c-0.3,0.3-0.7,0.5-1,0.7c-0.2-0.2-0.3-0.4-0.6-0.3c-0.3,0.2-0.7,0.1-1,0.4
	c-0.2,0.2-0.5,0.2-0.8,0.1c-0.3-0.1-0.7-0.1-1.1-0.2c0,0,0,0.1,0,0.1c-0.1-0.1-0.2-0.2-0.3-0.3c-0.2,0.1-0.3,0.2-0.5,0.3
	c-0.9-0.6-1.7-1.2-2.6-1.7c-0.8-0.4-1.2-1.2-1.9-1.8c-0.2-0.2-0.5-0.4-0.6-0.7c-0.5-1-0.9-2.1-1.3-3.1c-0.2-0.4-0.2-0.9-0.5-1.3
	c-0.3-0.5-0.7-1-0.9-1.6c-0.1-0.4-0.4-0.7-0.6-1.1c-0.1-0.3,0-0.6-0.2-0.8c-0.5-0.7-0.7-1.5-1.3-2.1c-0.1-0.1-0.1-0.3-0.1-0.4
	c0-0.7-0.4-1.4-0.6-2c-0.3-0.8-0.7-1.5-0.7-2.4c0-0.1,0-0.3-0.1-0.4c-0.2-0.2-0.2-0.5-0.2-0.8c0-0.2-0.1-0.4-0.1-0.7
	c0-0.1-0.2-0.3-0.1-0.4c0.2-0.6-0.2-1-0.3-1.5c-0.2-0.6-0.6-1.1-0.5-1.9c0.1-0.7-0.3-1.5-0.5-2.2c-0.2-0.8-0.5-1.5-0.8-2.2
	c0-0.1-0.1-0.2-0.1-0.3c0.1-0.7-0.1-1.3-0.4-1.9c-0.4-0.9-0.4-1.8-0.4-2.7c0-0.4,0-0.7-0.1-1.1c-0.2-1-0.6-2-0.6-3
	c0-0.3,0-0.5-0.1-0.8c0-0.2-0.1-0.4-0.2-0.6c-0.5-0.7-0.7-1.4-0.3-2.2c0.3-0.8,0.3-1.7,0-2.5c-0.2-0.4-0.2-0.7-0.1-1.1
	c0.1-0.4,0.4-0.8,0.2-1.3c0,0,0.1-0.2,0.1-0.2c0-0.1,0.1-0.3,0-0.4c-0.3-0.5,0.2-0.4,0.3-0.5c-0.1-0.2-0.3-0.4-0.3-0.5
	c0-0.4,0.1-0.8,0-1c-0.4-0.7-0.3-1.4-0.1-2.2c0.1-0.3,0.2-0.7-0.1-1c-0.1-0.2-0.2-0.4-0.2-0.6c0.2-0.5,0.1-0.9,0-1.3
	c0-0.1-0.1-0.2,0-0.3c0.1-0.5,0.5-1,0.3-1.6c0-0.1,0.1-0.2,0.2-0.3c0.1-0.1,0.1-0.2,0.1-0.3c0-0.2,0-0.5,0.1-0.7
	c0.1-0.4,0.1-0.7,0-1.1c-0.1-0.5-0.4-1.1,0.4-1.4c-0.1-0.2-0.2-0.4-0.3-0.6c0-0.2,0-0.5,0.2-0.6c0.3-0.3,0.2-0.6,0-0.8
	c0.1-0.2,0.4-0.5,0.3-0.5c-0.4-0.4,0-0.8-0.2-1.2c0-0.1,0-0.3,0.1-0.4c0.1-0.7,0.8-1.1,0.7-1.8c0-0.1,0-0.1,0.1-0.2
	c0.3-0.2,0.4-0.5,0.6-0.8c0.2-0.4,0.5-0.8,0.8-1.1c0.1-0.1,0.3-0.3,0.5-0.3c0.3,0,0.4-0.2,0.6-0.4c0.3-0.3,0.5-0.8,0.9-0.9
	c0.3-0.1,0.5-0.3,0.8-0.4c0.3-0.1,0.5-0.4,0.7-0.6c0.2,0,0.5-0.1,0.7-0.1c0.3,0,0.7-0.1,1,0c0.5,0.1,1,0.4,1.6,0.5
	c0.5,0.1,0.9,0.3,1.2,0.7c0.2,0.4,0.5,0.8,0.5,1.3c0,0.5,0.2,0.8,0.3,1.2c0,0.1,0.1,0.3,0.1,0.4c-0.1,0.4,0,0.7,0.1,1.1
	c0.1,0.3-0.1,0.7-0.1,1.1c0,0.3-0.1,0.5-0.3,0.6c-0.4,0.2-0.7,0.4-1.1,0.6c-0.2,0.1-0.4,0.2-0.6,0.4c-0.7,0.5-0.7,1-0.1,1.5
	c0.2,0.2,0.4,0.4,0.4,0.8c0,0.2,0.1,0.4,0.2,0.5c0.3,0.2,0.3,0.5,0.4,0.8c0,0.2,0.2,0.4,0.3,0.5c0.6,0,1.3,0.2,1.8-0.4
	c0.1-0.1,0.2-0.2,0.3-0.2c0.5,0.5,1,1,1.6,1.3c0.4,0.2,0.7,0.6,1.2,0.8c0.6,0.2,1.2,0,1.8-0.1c0.7-0.1,1.3,0,1.9,0
	c0.3-0.2,0.5-0.4,0.8-0.5c0.1-0.1,0.3,0,0.4-0.1c0.4-0.5,0.9-1,1.3-1.5c0.2-0.3,0.3-0.6,0.6-0.8c0.2-0.1,0.3-0.3,0.2-0.6
	c0-0.1-0.1-0.3,0-0.3c0.3-0.3,0.1-0.5-0.1-0.7c-0.1-0.1-0.1-0.3-0.2-0.4c-0.2-0.7-0.3-1.4-0.3-2.1c0-0.3-0.1-0.8-0.3-1
	c-0.5-0.6-0.5-1.4-0.9-1.9c0,0,0-0.1,0-0.2c0.2-0.9-0.2-1.7-0.5-2.4c-0.3-0.7-0.7-1.3-0.9-2c-0.1-0.3-0.1-0.5,0.1-0.7
	c0.3-0.4,0.2-0.7-0.2-0.9c-0.2-0.1-0.3-0.1-0.5-0.2c-0.1-0.1-0.3-0.1-0.3-0.2c-0.3-0.5-0.7-1-1-1.5c-0.2-0.3-0.3-0.6-0.5-0.9
	c-0.5-0.7-1.1-1.4-1.7-2.1c0.4-0.9,1-1.7,1.1-2.6c0-0.1,0.1-0.2,0.2-0.2c0.5-0.7,0.9-1.4,1.2-2.2c0.1-0.2,0.1-0.5,0.2-0.7
	c0.4-0.7,0.8-1.5,1.2-2.2c0.1-0.2,0.2-0.5,0.3-0.8c0.4,0.5,0.8,1.1,1.2,1.5c0.5,0.4,1,0.9,1.6,1.1c0.9,0.3,1.8,0.5,2.7,0.3
	c0.6-0.1,1.1,0,1.7-0.3c0.5-0.3,0.9-0.5,1.3-0.8c1-0.6,1.5-1.7,1.9-2.7c0.4-1.2,0.3-2.5,0.3-3.7c0-0.9-0.1-1.7-0.2-2.6
	c0-0.1,0.1-0.3,0.1-0.5c0.8,0.2,1.5,0,2.2,0.3c0.5,0.2,1,0.2,1.5,0.4c1.1,0.4,2.1,0.9,3.1,1.4c1.1,0.5,1.9,1.4,2.8,2
	c0.4,0.3,0.6,0.7,1,1c0.6,0.4,0.9,1,1.5,1.4c0.2,0.2,0.4,0.5,0.6,0.8c0.2,0.3,0.4,0.7,0.4,1c-0.1,1.2-0.3,2.4-0.4,3.6
	c-0.1,1.1-0.3,2.2-0.5,3.3c-0.1,0.9-0.2,1.9-0.3,2.8c-0.1,0.5-0.2,0.9-0.3,1.4c-0.2-0.1-0.2-0.2-0.2-0.3c-0.1-0.8-0.2-1.6-0.4-2.4
	c-0.2-0.9-0.3-1.8-0.5-2.7c-0.2-1.3-0.4-2.7-0.6-4c-0.1-0.6-0.3-1.1-0.3-1.7c0-0.8-0.2-1.3-0.8-1.7c-0.9,0-1.7,0-2.5,0.1
	c-0.2,0-0.4,0-0.6,0.1c-0.2,0.1-0.3,0.3-0.3,0.5c-0.1,0.6-0.1,1.1-0.1,1.7c0,0.9,0,1.8,0,2.7c0,0.8-0.1,1.5,0,2.3
	c0.1,0.8,0.1,1.6,0.1,2.5c-0.1,1,0,1.9,0,2.9c0,0.2,0.1,0.4,0.1,0.6c0,0.7-0.1,1.4,0,2.1c0,0.2,0.2,0.4,0.3,0.5
	c0.3,0.3,1.3,0.2,1.6,0c0.3-0.2,0.4-0.4,0.4-0.7c0-0.5,0-0.9,0-1.4c0-1.3,0-2.6,0-3.9c0-1.1-0.1-2.1-0.1-3.2c0-0.3-0.1-0.6,0.2-0.9
	c0.1,0.2,0.2,0.3,0.2,0.4c0.1,0.6,0.2,1.1,0.2,1.7c0.1,1,0.3,2,0.5,3c0.1,0.9,0.3,1.7,0.4,2.6c0.1,0.6,0.3,1.2,0.4,1.9
	c0.1,0.3,0.3,0.6,0.6,0.6c0.9,0,1.8,0.2,2.7,0c0.1,0,0.3-0.2,0.4-0.3c0.3-0.3,0.3-0.7,0.3-1.2c0.1-0.9,0.3-1.8,0.4-2.7
	c0-0.3,0-0.6,0-0.8c0.1-1,0.3-2,0.4-3c0.1-0.7,0.2-1.4,0.5-2.1c0,0.3-0.1,0.6,0,0.9c0.2,0.8,0.1,1.7,0.1,2.6c0.1,1.4,0,2.7,0,4.1
	c0,0.6,0,1.2-0.2,1.7c-0.8,1.4-1.8,2.7-2.9,3.9c-0.5,0.5-1,1-1.6,1.4c-1.2,0.9-2.5,1.8-3.8,2.7c-0.7,0.5-1.4,0.8-2.1,1.3
	c-0.2,0.1-0.4,0.3-0.6,0.4c-0.4,0.2-0.9,0.4-1.3,0.7c-0.2,0.1-0.5,0.4-0.6,0.6c-0.3,0.5-0.7,1-1.1,1.4c-0.4,0.3-0.7,0.8-1,1.2
	c-0.2,0.3-0.3,0.6-0.2,1c0.1,0.6,0.3,1.2,0.4,1.7c0,0.2,0.2,0.3,0.3,0.4c0.4,0.3,0.8,0.7,1,1.1c0.3,0.5,0.7,1,1.3,1.2
	c0.2,0.1,0.4,0.3,0.5,0.5c0.2,0.3,0.4,0.5,0.8,0.4c0.5,0,0.8,0.2,1.2,0.4c0.6,0.4,1.3,0.8,2.1,1c0.3,0.1,0.6,0.2,0.9,0.3
	c0.6,0.3,1.2,0.6,1.8,0.9c1.5,0.7,3.1,1.3,4.6,2.1c0.5,0.3,1,0.6,1.6,0.9c0.6,0.3,1.2,0.5,1.7,0.8c0.2,0.1,0.4,0.3,0.6,0.5
	c0.2,0.2,0.5,0.3,0.7,0.4c0.8,0.2,1.4,0.6,2.1,1c0.7,0.5,1.5,0.9,2.3,1.2c0.8,0.3,1.7,0.6,2.6,0.8c0.1,0,0.3,0.1,0.3,0.2
	c0,0.8,0,1.5,0,2.3c0,0.8-0.1,1.7,0,2.5c0,0.6-0.1,1.2,0.2,1.7c0.1,0.3,0.3,0.5,0.6,0.5c0.4,0,0.8,0,1.3,0c1.6,0.1,3.2-0.1,4.8,0.1
	c0.9,0.1,1.9,0,2.9-0.1c0.3,0,0.6-0.1,0.7-0.4c0.1-0.3,0.1-0.7,0.1-1.1c-0.1-0.5-0.4-0.7-0.9-0.8c-0.6,0-1.2,0-1.9,0
	c-0.4,0-0.9,0-1.3,0c-0.8,0-1.5,0.1-2.3,0c-0.6,0-1.1-0.1-1.7-0.1c0-1.2,0-2.4,0-3.5c0-0.3,0.1-0.5,0.5-0.5c0.3,0,0.7,0,1,0.1
	c0.7,0.3,1.5,0.2,2.3,0.4c0.6,0.1,1.2,0,1.8,0.1c0.6,0.1,1.2,0.1,1.8,0.3c0.6,0.2,1.2,0.4,1.8,0.7c0.7,0.3,1.4,0.5,1.8,1.1
	c0.2,0.3,0.5,0.5,0.8,0.7c0.1,0.1,0.2,0.4,0.3,0.5c0.5,0.5,2.1,0.3,2.5-0.3c0.1-0.2,0.3-0.3,0.5-0.5c0.4-0.3,0.5-0.5,0.2-1.1
	C219.7,121.9,219.6,121.7,219.6,121.5z M166.4,66.9c0.1-1.4,0.7-2.5,1.9-3.1c0.3-0.2,0.8-0.3,1.1-0.3c1,0.1,1.9,0.3,2.5,1.3
	c-2.1,0.6-3.6,2.1-5.4,3.2C166.3,67.7,166.4,67.3,166.4,66.9z M173.1,70.8c0,0.8,0,1.5-0.2,2.3c-0.2,0.8-0.5,1.4-1.2,1.9
	c-0.6,0.5-1.3,0.6-2.1,0.6c-1.2-0.1-2-0.7-2.5-1.7c-0.2-0.4-0.3-0.8-0.4-1.3c0-0.2,0-0.4,0.1-0.5c0.3-0.4,0.7-0.9,1.1-1.3
	c1.1-1.1,2.5-1.9,3.8-2.7c0.3-0.2,0.8-0.2,1.2-0.3C173,68.9,173.1,69.8,173.1,70.8z"/>
<path d="M173.9,130c0-0.2,0.1-0.5,0.2-0.7c-0.2-0.3-0.3-0.4-0.4-0.6c0,0.1,0.1,0.3,0.4,0.6C174,129.6,173.9,129.8,173.9,130z"/>
<path d="M215.9,129.8c-0.3-0.1-0.6-0.1-1-0.2c-0.4,0-0.7,0-1,0.4c-0.1,0.2-0.3,0.2-0.5,0.3c-0.5,0.3-1,0.5-1.4,0.8
	c-0.9,0.8-2,1.2-3.1,1.5c-0.2,0-0.4,0.1-0.5,0.2c-0.2,0.1-0.2,0.1-0.4,0c-0.4-0.2-0.7-0.4-1.2-0.3c-0.6,0.1-1.2,0-1.9,0
	c-0.1,0-0.2,0-0.3,0.1c-0.5,0.2-0.8,0.5-0.9,1.1c-0.3,1.3-0.3,1.3-1.5,1.7c0,0,0,0-0.1,0c-0.8,0.5-1.8,0.2-2.5,1
	c-1.3,0.5-2.6,1.1-3.9,1.6c-0.3,0.1-0.5,0.3-0.7,0.4c-0.7,0.2-1.3,0.4-2,0.5c-0.6,0.1-1.1,0.5-1.5,1c-0.4,0.4-0.5,1-0.3,1.6
	c0.2,0.5,1,0.2,1.2,0.7c0,0,0.3,0,0.4,0c0,0,0.1-0.1,0.1-0.1c0.1,0,0.2-0.1,0.3-0.1c0.6-0.2,1.2-0.3,1.8-0.5
	c0.4-0.1,0.9-0.4,1.3-0.4c0.6,0,1-0.3,1.5-0.6c0.2-0.1,0.3-0.3,0.5-0.3c0.7,0,1.2-0.5,1.8-0.7c0.7-0.2,1.3-0.4,1.8-0.8
	c0.1-0.1,0.2-0.1,0.4-0.2c-0.1,0.5-0.1,0.8-0.2,1.2c-0.3,1-0.6,2-0.9,3c-0.3,1-0.6,1.9-0.8,2.9c-0.2,0.7-0.4,1.4-0.6,2
	c-0.1,0.4,0,0.9,0.3,1c0.5,0.3,1,0.2,1.6,0c0.5-0.2,0.3-0.6,0.6-0.8c0,0,0-0.1,0-0.1c0.2-0.6,0.4-1.3,0.6-1.9
	c0.3-0.9,0.4-0.8,1.1-0.8c0.4,0,0.9,0,1.3,0c1.1,0,2.3,0,3.4,0c0.4,0,0.6,0.2,0.7,0.5c0.2,0.5,0.3,1.1,0.5,1.6
	c0.1,0.4,0.3,0.8,0.4,1.2c0,0.1,0.1,0.1,0.2,0.2c0.3,0.4,0.8,0.3,1.2,0.3c0.7,0.1,1.2-0.3,1-1c-0.1-0.7-0.3-1.4-0.6-2
	c-0.4-1.1-0.8-2.2-1.1-3.3c-0.3-1-0.6-2-0.9-2.9c-0.3-0.8-0.6-1.7-0.9-2.5c-0.1-0.2,0-0.5,0.1-0.6c0.5-0.3,1-0.6,1.5-0.8
	c0.4-0.2,0.8-0.2,1.1-0.4c0.2-0.1,0.5-0.3,0.7-0.4c0.7-0.4,1.3-0.8,2-1.2c0.2-0.1,0.3-0.3,0.4-0.4c0.3-0.3,0.5-0.8,0.8-1
	c0.5-0.4,0-0.9,0.3-1.4c0.1-0.1,0-0.3-0.1-0.4C216.1,130,216,129.9,215.9,129.8z M207.9,142.4c-1.2,0-2.4,0-3.8,0
	c0-0.2-0.1-0.5-0.1-0.7c0.3-1.2,0.6-2.4,0.9-3.6c0.2-0.8,0.9-1.1,1.6-1.3c0.1,0,0.3,0.1,0.5,0.2c0.1,0.1,0.1,0.2,0.1,0.3
	c0.3,1.1,0.7,2.2,1,3.4c0.1,0.4,0.2,0.7,0.3,1.1C208.5,142.3,208.3,142.4,207.9,142.4z"/>
<path d="M88.8,58.4c0.7,0.8,1.3,1.6,1.7,2.5c0.5,1.3,1,2.6,1.4,4c0.1,0.5,0.3,0.8,0.8,1.1c0.2,0.1,0.3,0.2,0.4,0.4
	c-0.1,0.2-0.2,0.5-0.3,0.6c-0.6,0.9-0.8,1.8-1,2.8c-0.1,0.9-0.2,1.8-0.2,2.8c0,0.9,0.1,1.8,0.1,2.7c0,0.5,0,1.1,0.2,1.6
	c0.1,0.3,0.2,0.5,0.3,0.8c0.3,0.6,0.6,1.3,1,1.8c0.8,1,2,1.6,3.3,1.7c0.3,0,0.6,0,1,0c1.5,0.2,2.7-0.4,3.7-1.2
	c1.2-1,1.7-2.3,1.9-3.8c0.1-1-0.5-1.5-1.5-1.3c-0.2,0-0.4,0.1-0.5,0.1c-0.3,0-0.4,0.3-0.4,0.5c-0.1,0.3-0.1,0.6-0.1,0.9
	c-0.1,1.2-0.9,1.9-2,2.3c-0.9,0.3-1.8,0.3-2.7-0.1c-0.3-0.1-0.6-0.4-0.8-0.6c-0.6-1-0.9-2-0.9-3.2c0-0.9-0.1-1.9,0-2.8
	c0.1-1.1,0-2.3,0.6-3.3c0.4-0.7,0.8-1.3,1.7-1.6c0.9-0.3,1.8-0.1,2.6,0.2c0.4,0.2,0.9,0.5,1.1,1.1c0.2,0.6,0.5,1.3,0.7,1.9
	c0.2,0.7,0.4,0.8,1.2,0.8c0.3,0,0.5,0,0.8-0.1c0.4-0.6,0.5-1.3,0.3-2.1c-0.1-0.2-0.1-0.5-0.2-0.7c-0.2-0.8-0.7-1.5-1.2-2.1
	c-0.9-0.9-2.1-1.4-3.4-1.5c-0.9-0.1-1.8,0-2.6,0.1c-0.1-0.4-0.2-0.8-0.4-1.3c-0.1-0.4-0.3-0.8-0.4-1.3c-0.2-0.6-0.3-1.2-0.5-1.7
	c-0.3-0.7-0.7-1.4-1-2.1c-0.4-0.8-0.7-1.6-1.3-2.3c-1-1.2-1.7-1.4-3.1-0.8c-0.7,0.3-0.8,0.9-1,1.5c0,0.1,0,0.2,0.1,0.3
	C88.2,57.6,88.5,58,88.8,58.4z"/>
<path d="M77.1,96.6c0.4-0.1,0.8-0.2,1.3-0.3c0.3-0.1,0.6-0.3,1,0c1.3,1,2.8,1.1,4.4,0.9c0.5,0,1-0.3,1.5-0.5
	c0.7-0.2,1.3-0.6,1.7-1.2c0.5-0.8,1.1-1.6,1.2-2.6c0-0.4,0.3-0.6,0.6-0.7c0.7-0.1,1.1-0.5,1.6-0.8c0.7-0.4,0.7-1.6,0-2
	c-0.6-0.3-1.2-0.5-2-0.8c0-0.2-0.1-0.5,0-0.7c0.1-0.5,0.1-1.1,0-1.6c-0.2-1.1-0.2-2.3-0.9-3.3c-0.1-0.2-0.2-0.4-0.3-0.6
	c-0.6-0.6-1.2-1.2-2-1.5c-0.1-0.1-0.2-0.2-0.3-0.2c-0.8-0.1-1.6-0.3-2.4-0.3c-1.8,0.1-3.2,0.7-4.2,2.2c-0.3,0.5-0.7,1.1-0.9,1.7
	c-0.2,0.6-0.2,1.3-0.3,2c0,0.2,0,0.5,0,0.7c0,1,0.1,2,0.1,3c0,0.4,0.1,0.9,0.1,1.3c0,0.5,0,0.9,0.2,1.4c0.2,0.4,0.3,0.8-0.2,1.2
	c-0.3,0.2-0.4,0.5-0.6,0.7c-0.2,0.2-0.3,0.5-0.4,0.8C75.9,96.3,76.4,96.8,77.1,96.6z M83.3,94.9c-0.3,0.1-0.6,0-0.9,0
	c-0.3,0-0.5-0.1-0.8-0.1c0.4-0.3,3-1.4,3.9-1.6C84.5,94.7,84.9,94.5,83.3,94.9z M79.6,85.3c0.3-1,0.8-1.9,1.9-2.3
	c0.9-0.3,1.7-0.2,2.5,0.2c1,0.5,1.4,1.4,1.6,2.4c0.2,0.7,0.2,1.4,0.2,2.1c0,0.6,0,1.2,0,1.8c-1.9,1.2-4.1,1.7-6.2,2.7
	c-0.1-0.4-0.2-0.8-0.3-1.2c-0.1-1.1-0.1-2.2-0.1-3.3C79.4,87,79.4,86.1,79.6,85.3z"/>
<path d="M189.4,180c0-0.2,0-0.5,0-0.7c0-0.8-0.1-1.7-0.1-2.5c0-0.6,0-1.3-0.1-1.9c0-0.4,0.1-0.9,0.1-1.3c0-0.4-0.2-0.8-0.3-1.2
	c0-0.2,0-0.3,0-0.5c0-0.3,0-0.6-0.1-0.9c0-0.3-0.1-0.6-0.4-0.8c-0.3,0-0.6-0.1-0.9-0.1c-0.1-0.2-0.2-0.4-0.4-0.5
	c-0.1-0.1-0.3-0.2-0.4-0.2c-0.8,0.1-1.1,0.6-0.9,1.4c0.1,0.2,0.1,0.4,0.2,0.6c0.4,1,0.5,2.1,0.6,3.2c0,1.3,0.1,2.6,0.2,3.9
	c0,1.1,0.1,2.2,0.2,3.4c0,0.3,0,0.6,0,0.9c-0.4,0-0.4-0.3-0.4-0.5c-0.3-0.7-0.5-1.4-0.8-2.2c-0.4-1.1-0.8-2.2-1.2-3.2
	c-0.2-0.5-0.3-1.1-0.5-1.6c-0.4-1.2-0.9-2.3-1.3-3.5c-0.2-0.4-0.3-0.9-0.7-1.1c-0.3-0.2-0.6-0.1-0.9,0c-0.1,0-0.2,0-0.3,0
	c-0.7,0.1-1.4,0.1-2.1,0.2c-0.3,0-0.6,0.3-0.6,0.6c0,0.6,0,1.2,0,1.8c0.1,1.2,0.1,2.4,0.2,3.6c0,1,0.1,2,0.1,2.9c0,0.5,0,1,0.1,1.4
	c0,0.1,0,0.3,0.1,0.4c0.1,0.5,0.1,0.9,0.2,1.4c0,0.9,0,1.7,0.1,2.6c0.1,1,0.4,1.3,1.3,1.1c1.1-0.2,1.2-0.4,1-1.3c0-0.2,0-0.3,0-0.5
	c0-0.6,0-1.1,0-1.7c0-0.6-0.1-1.2-0.1-1.8c0-0.8,0-1.7-0.1-2.5c-0.1-1.5-0.2-3-0.2-4.6c0-0.2,0.1-0.4,0.1-0.6c0.2,0.3,0.2,0.7,0.4,1
	c0.4,1.1,0.9,2.2,1.3,3.3c0.4,1.1,0.8,2.2,1.2,3.4c0.2,0.6,0.5,1.3,0.7,1.9c0.3,0.9,0.6,1.8,1,2.6c0.1,0.2,0.3,0.3,0.5,0.3
	c0.7,0,1.5,0,2.2,0c0.5,0,1-0.2,1.4-0.5c0-1-0.1-2.1-0.1-3.2C189.6,181.5,189.5,180.8,189.4,180z"/>
<path d="M195.5,100c0,0.9,0.1,1.7,0.1,2.6c0,0.3,0.1,0.6,0.1,0.9c0,0.9,0,1.9,0.1,2.8c0,0.2,0.2,0.4,0.3,0.5c0.5,0.3,1.1,0.2,1.7,0
	c0.1-0.1,0.2-0.3,0.3-0.5c0.3-0.6,0-1.2,0-1.8c0-1.3-0.1-2.5-0.1-3.8c0.2-0.1,0.3-0.1,0.5-0.1c1,0,1.9,0,2.9-0.1
	c1.4-0.1,2.6-0.5,3.6-1.5c0.7-0.7,1.1-1.5,1.1-2.4c0.1-1.2,0.1-2.4-0.5-3.5c-0.3-0.5-0.7-1-1.2-1.3c-1.2-0.9-2.6-1-3.9-1
	c-1.4,0-2.8,0.1-4.2,0.2c-0.9,0-1.1,0.2-1.1,1.1c0,1.1,0,2.3,0,3.4C195.4,96.9,195.6,98.5,195.5,100z M198.8,93.2
	c0.8,0,1.6-0.1,2.4,0c0.4,0,0.9,0.1,1.3,0.2c0.4,0.1,0.5,0.4,0.8,0.7c0.6,0.8,0.6,1.7,0.3,2.7c-0.2,0.8-0.9,1.1-1.6,1.3
	c-1.3,0.3-2.6,0.2-4,0.2c0-0.9-0.1-1.6-0.1-2.4c0-0.6-0.1-1.1-0.1-1.7C197.8,93.4,198,93.2,198.8,93.2z"/>
<path d="M201.4,167.2c-0.3,0.1-0.7,0.1-1.1,0c-0.5-0.1-1.1,0-1.5-0.3c0-1.1,0-2.1,0-3.1c0-1-0.1-2-0.1-3c0-1.3,0-2.6,0-3.9
	c0-0.4,0.1-0.8,0.3-1.1c0.3,0,0.6,0,0.9,0c0.7,0,1.5-0.1,2.2-0.1c0.1,0,0.4-0.2,0.4-0.3c0.1-0.4,0.1-0.8,0-1.2
	c-0.1-0.5-0.4-0.7-0.9-0.7c-0.6,0-1.1,0-1.7,0c-0.8,0-1.7,0.1-2.5,0.1c-1.4,0-2.7,0-4.1,0c-0.9,0-1,0.2-1.1,1
	c-0.1,0.9,0.3,1.3,1.2,1.3c0.6,0,1.2,0,1.8,0c0.3,0,0.6,0,0.8,0.1c0.3,0.2,0.1,0.5,0.1,0.8c0.1,1,0.1,1.9,0.2,2.9c0,0.9,0,1.8,0,2.7
	c0,1.2,0,2.4,0,3.6c0,0.1,0,0.3,0,0.4c0,0.5-0.2,0.7-0.7,0.8c-0.6,0.1-1.3,0.1-1.9,0.1c-0.9-0.1-1.3,0.3-1.4,1.1
	c0,0.7,0.2,1.1,0.7,1.2c0.3,0.1,0.6,0,1,0c1.2,0,2.3-0.1,3.5-0.1c0.3,0,0.6-0.1,0.9-0.1c1.1,0.1,2.3,0.1,3.4,0
	c0.7-0.1,1-0.6,0.9-1.2c0-0.2-0.1-0.5-0.1-0.8C202.3,167.3,201.9,167.1,201.4,167.2z"/>
<path d="M156.9,207.3c0.3-0.6,0.4-1.1,0.2-1.8c-0.2-0.4-0.3-0.7-0.8-0.8c-0.2,0-0.3-0.1-0.5-0.2c-0.9-0.6-2-0.8-3-1
	c-0.4-0.1-0.7,0-0.8,0.4c-0.1,0.4-0.3,0.8-0.1,1.3c0.2,0.3,0.4,0.8,0.3,1c-0.3,0.6,0,0.9,0.3,1.3c0.2,0.2,0.2,0.4,0.3,0.7
	c0.1,0.5,0,1.2,0.8,1.3c0.1,0,0.1,0.1,0.1,0.1c0.5,0.8,1.1,1,2.1,0.7c0.4-0.2,0.7-0.4,0.8-0.8c0.1-0.4,0.2-0.7,0.5-0.9
	c0.4-0.3,0.4-0.5,0.1-0.9C157,207.5,157,207.4,156.9,207.3z"/>
</svg>
