<?xml version="1.0" encoding="utf-8"?>
<!-- Generator: Adobe Illustrator 23.1.0, SVG Export Plug-In . SVG Version: 6.00 Build 0)  -->
<svg version="1.1" id="Layer_1" xmlns="http://www.w3.org/2000/svg" xmlns:xlink="http://www.w3.org/1999/xlink" x="0px" y="0px"
	 viewBox="0 0 256 256" style="enable-background:new 0 0 256 256;" xml:space="preserve">
<style type="text/css">
	.st0{fill:none;}
	.st1{fill:#0A0A08;}
</style>
<g>
	<path class="st0" d="M204.4,51.6C184,31.2,156.8,20,128,20S72,31.2,51.6,51.6C31.2,72,20,99.2,20,128s11.2,56,31.6,76.4
		C72,224.8,99.2,236,128,236s56-11.2,76.4-31.6C224.8,184,236,156.8,236,128S224.8,72,204.4,51.6z M133,199
		c-2.6,2.5-5.7,3.8-9.3,3.8c-3.6,0-6.7-1.3-9.2-3.8c-2.5-2.5-3.8-5.6-3.8-9.2s1.3-6.7,3.8-9.3c2.5-2.6,5.6-3.9,9.2-3.9
		c3.6,0,6.7,1.3,9.3,3.9c2.6,2.6,3.9,5.7,3.9,9.3S135.6,196.5,133,199z M150.5,132l-9.2,6.2c-5.9,4-8.8,10.4-8.8,19.2
		c0,1.2,0.1,2.5,0.2,3.8h-17.6c-0.1-1.6-0.2-3.9-0.2-7c0-13.3,5.5-23.7,16.6-31.2l8.8-6c7.1-4.8,10.6-11.3,10.6-19.6
		c0-6.4-2.1-11.8-6.2-16.2c-4.1-4.4-10-6.6-17.6-6.6c-8.1,0-14.3,2.5-18.6,7.6c-4.3,5.1-6.4,11.1-6.4,18c0,4,0.5,7.3,1.4,9.8
		l-19.4-2.4c-0.8-2.8-1.2-6-1.2-9.6c0-6.5,1.5-12.8,4.4-18.8c2.9-6,7.9-11.2,14.8-15.6c6.9-4.4,15.3-6.6,25-6.6c13.3,0,24,4,31.9,12
		c7.9,8,11.9,17.4,11.9,28.2C170.9,111.2,164.1,122.8,150.5,132z"/>
	<path class="st1" d="M128,0C57.3,0,0,57.3,0,128s57.3,128,128,128s128-57.3,128-128S198.7,0,128,0z M204.4,204.4
		C184,224.8,156.8,236,128,236s-56-11.2-76.4-31.6C31.2,184,20,156.8,20,128s11.2-56,31.6-76.4C72,31.2,99.2,20,128,20
		s56,11.2,76.4,31.6C224.8,72,236,99.2,236,128S224.8,184,204.4,204.4z"/>
	<path d="M123.7,176.6c-3.6,0-6.7,1.3-9.2,3.9c-2.5,2.6-3.8,5.7-3.8,9.3s1.3,6.7,3.8,9.2c2.5,2.5,5.6,3.8,9.2,3.8
		c3.6,0,6.7-1.3,9.3-3.8c2.6-2.5,3.9-5.6,3.9-9.2s-1.3-6.7-3.9-9.3C130.4,177.9,127.3,176.6,123.7,176.6z"/>
	<path d="M127.1,57c-9.7,0-18.1,2.2-25,6.6c-6.9,4.4-11.9,9.6-14.8,15.6c-2.9,6-4.4,12.3-4.4,18.8c0,3.6,0.4,6.8,1.2,9.6l19.4,2.4
		c-0.9-2.5-1.4-5.8-1.4-9.8c0-6.9,2.1-12.9,6.4-18c4.3-5.1,10.5-7.6,18.6-7.6c7.6,0,13.5,2.2,17.6,6.6c4.1,4.4,6.2,9.8,6.2,16.2
		c0,8.3-3.5,14.8-10.6,19.6l-8.8,6c-11.1,7.5-16.6,17.9-16.6,31.2c0,3.1,0.1,5.4,0.2,7h17.6c-0.1-1.3-0.2-2.6-0.2-3.8
		c0-8.8,2.9-15.2,8.8-19.2l9.2-6.2c13.6-9.2,20.4-20.8,20.4-34.8c0-10.8-4-20.2-11.9-28.2C151,61,140.4,57,127.1,57z"/>
</g>
</svg>
